<svg width="4508" height="1059" viewBox="0 0 4508 1059" fill="none" xmlns="http://www.w3.org/2000/svg">
<path d="M529.554 1059C822.019 1059 1059.11 821.935 1059.11 529.5C1059.11 237.065 822.019 0 529.554 0C237.09 0 0 237.065 0 529.5C0 821.935 237.09 1059 529.554 1059Z" fill="white"/>
<path d="M123.16 539.86V771.194L529.323 365.073L940.627 771.194V539.86L529.323 113.176L123.16 539.86Z" fill="white"/>
<path d="M627.215 627.086H421.562V771.028H627.215V627.086Z" fill="white"/>
<path d="M1576.92 807.219C1572.52 798.709 1568.67 784.85 1565.37 765.638C1533.45 798.848 1494.38 815.452 1448.16 815.452C1403.32 815.452 1366.73 802.69 1338.39 777.165C1310.05 751.641 1295.88 720.077 1295.88 682.474C1295.88 634.991 1313.49 598.626 1348.7 573.373C1384.2 547.848 1434.82 535.086 1500.57 535.086H1562.06V505.855C1562.06 482.801 1555.6 464.41 1542.67 450.687C1529.74 436.689 1510.07 429.691 1483.65 429.691C1460.82 429.691 1442.11 435.456 1427.53 446.983C1412.95 458.235 1405.65 472.646 1405.65 490.212H1305.37C1305.37 465.784 1313.49 443.002 1329.72 421.868C1345.95 400.46 1367.96 383.717 1395.75 371.642C1423.81 359.566 1455.04 353.527 1489.43 353.527C1541.7 353.527 1583.39 366.702 1614.48 393.05C1645.56 419.126 1661.52 455.903 1662.35 503.384V704.295C1662.35 744.366 1667.99 776.343 1679.27 800.219V807.219H1576.92ZM1466.73 735.172C1486.54 735.172 1505.11 730.368 1522.45 720.761C1540.06 711.157 1553.26 698.256 1562.06 682.062V598.075H1508C1470.86 598.075 1442.93 604.527 1424.23 617.425C1405.52 630.325 1396.16 648.578 1396.16 672.18C1396.16 691.394 1402.49 706.764 1415.15 718.293C1428.08 729.546 1445.27 735.172 1466.73 735.172Z" fill="white"/>
<path d="M1860.43 361.76L1863.32 413.222C1896.33 373.426 1939.66 353.527 1993.31 353.527C2086.31 353.527 2133.63 406.635 2135.28 512.855V807.219H2035V518.617C2035 490.347 2028.8 469.488 2016.42 456.041C2004.32 442.318 1984.37 435.456 1956.58 435.456C1916.14 435.456 1886.01 453.706 1866.21 490.212V807.219H1765.92V361.76H1860.43Z" fill="white"/>
<path d="M2394.04 663.886L2484.83 361.699H2591.72L2414.26 874.676C2387.02 949.604 2340.8 987.071 2275.6 987.071C2261.02 987.071 2244.92 984.6 2227.31 979.661V902.259L2246.3 903.495C2271.61 903.495 2290.59 898.83 2303.25 889.497C2316.18 880.441 2326.36 865.069 2333.79 843.387L2348.23 805.1L2191.41 361.699H2299.53L2394.04 663.886Z" fill="white"/>
<path d="M2642.84 701.758C2661.55 701.758 2675.99 707.11 2686.17 717.814C2696.35 728.244 2701.44 741.419 2701.44 757.336C2701.44 772.982 2696.35 786.019 2686.17 796.449C2675.99 806.604 2661.55 811.682 2642.84 811.682C2624.96 811.682 2610.79 806.604 2600.33 796.449C2589.88 786.293 2584.65 773.257 2584.65 757.336C2584.65 741.419 2589.74 728.244 2599.92 717.814C2610.1 707.11 2624.41 701.758 2642.84 701.758Z" fill="white"/>
<path d="M2994.48 773.872C3028.86 773.872 3057.62 764.265 3080.73 745.053C3104.11 725.565 3116.77 700.453 3118.7 669.712H3166.17C3164.78 696.885 3156.26 721.723 3140.56 744.23C3124.89 766.461 3103.98 783.889 3077.85 796.515C3051.97 809.139 3024.19 815.452 2994.48 815.452C2935.88 815.452 2889.39 795.141 2854.98 754.522C2820.87 713.9 2803.82 659.282 2803.82 590.665V575.844C2803.82 531.931 2811.53 493.093 2826.93 459.332C2842.32 425.575 2864.35 399.499 2892.94 381.11C2921.84 362.722 2955.54 353.527 2994.08 353.527C3043.04 353.527 3083.34 368.074 3114.98 397.166C3146.89 426.262 3163.97 464.549 3166.17 512.03H3118.7C3116.5 477.175 3103.84 449.041 3080.73 427.633C3057.89 406.225 3029 395.521 2994.08 395.521C2949.48 395.521 2914.83 411.577 2890.07 443.689C2865.57 475.801 2853.35 520.814 2853.35 578.725V593.136C2853.35 649.95 2865.57 694.275 2890.07 726.113C2914.83 757.951 2949.62 773.872 2994.48 773.872Z" fill="white"/>
<path d="M3547.11 807.219C3542.17 793.221 3538.99 772.5 3537.63 745.053C3520.28 767.558 3498.15 784.988 3471.18 797.338C3444.48 809.416 3416.16 815.452 3386.15 815.452C3343.24 815.452 3308.43 803.513 3281.76 779.636C3255.34 755.757 3242.14 725.565 3242.14 689.062C3242.14 645.695 3260.15 611.388 3296.21 586.138C3332.52 560.885 3383 548.261 3447.66 548.261H3537.2V497.622C3537.2 465.784 3527.31 440.808 3507.49 422.694C3487.96 404.302 3459.34 395.108 3421.65 395.108C3387.27 395.108 3358.78 403.892 3336.24 421.458C3313.67 439.024 3302.37 460.158 3302.37 484.86L3252.87 484.447C3252.87 449.041 3269.38 418.439 3302.37 392.637C3335.4 366.564 3376 353.527 3424.12 353.527C3473.92 353.527 3513.14 366.015 3541.76 390.991C3570.63 415.693 3585.48 450.276 3586.32 494.741V705.528C3586.32 748.621 3590.86 780.869 3599.93 802.28V807.219H3547.11ZM3391.94 771.813C3424.96 771.813 3454.4 763.855 3480.25 747.934C3506.4 732.017 3525.38 710.744 3537.2 684.12V586.138H3448.88C3399.65 586.687 3361.11 595.742 3333.33 613.308C3305.55 630.6 3291.65 654.479 3291.65 684.945C3291.65 709.922 3300.88 730.643 3319.32 747.111C3338 763.58 3362.23 771.813 3391.94 771.813Z" fill="white"/>
<path d="M3985.75 694.001C3985.75 669.574 3975.84 649.95 3956.04 635.129C3936.52 620.308 3906.94 608.779 3867.32 600.546C3827.7 592.039 3796.88 582.432 3774.88 571.727C3753.13 560.749 3736.92 547.438 3726.16 531.792C3715.71 516.149 3710.49 497.209 3710.49 474.978C3710.49 439.847 3725.21 410.89 3754.65 388.11C3784.09 365.054 3821.78 353.527 3867.73 353.527C3917.53 353.527 3957.43 365.877 3987.41 390.579C4017.66 415.006 4032.79 446.983 4032.79 486.505H3983.28C3983.28 460.432 3972.28 438.75 3950.26 421.458C3928.53 404.167 3901.02 395.521 3867.73 395.521C3835.25 395.521 3809.12 402.793 3789.3 417.339C3769.77 431.614 3760.03 450.277 3760.03 473.33C3760.03 495.564 3768.12 512.855 3784.36 525.205C3800.87 537.283 3830.71 548.397 3873.92 558.552C3917.37 568.708 3949.85 579.551 3971.3 591.077C3993.06 602.604 4009.13 616.466 4019.59 632.658C4030.04 648.853 4035.28 668.477 4035.28 691.533C4035.28 729.133 4020 759.187 3989.47 781.695C3959.19 804.2 3919.6 815.452 3870.61 815.452C3818.6 815.452 3776.37 802.964 3743.92 777.988C3711.74 752.738 3695.64 720.9 3695.64 682.474H3745.14C3747.07 711.293 3759.18 733.801 3781.48 749.992C3804.02 765.913 3833.76 773.872 3870.61 773.872C3905.01 773.872 3932.8 766.323 3953.98 751.228C3975.16 736.133 3985.75 717.058 3985.75 694.001Z" fill="white"/>
<path d="M4195.79 437.057C4212.03 410.435 4232.81 389.85 4258.12 375.303C4283.43 360.754 4311.07 353.482 4341.05 353.482C4388.93 353.482 4424.56 366.932 4447.94 393.828C4471.32 420.726 4483.16 461.071 4483.43 514.869V807.174H4434.33V514.456C4434.06 474.659 4425.54 445.015 4408.75 425.53C4392.24 406.041 4365.68 396.299 4329.1 396.299C4298.55 396.299 4271.45 405.906 4247.8 425.117C4224.41 444.057 4207.09 469.717 4195.79 502.106V807.174H4146.69V174.805H4195.79V437.057Z" fill="white"/>
</svg>
