<svg width="3890" height="539" viewBox="0 0 3890 539" fill="none" xmlns="http://www.w3.org/2000/svg">
<g clip-path="url(#clip0)">
<path d="M3150.46 506.999V14.5547" stroke="white" stroke-width="40"/>
<path d="M3362.74 507.827V119.349C3362.76 111.27 3365.22 103.389 3369.82 96.7331C3374.41 90.0774 3380.9 84.9559 3388.42 82.0369C3395.97 79.1174 3404.22 78.5357 3412.09 80.3676C3419.99 82.1993 3427.13 86.3597 3432.59 92.3062L3740.63 430.907C3746.09 436.914 3753.24 441.127 3761.11 442.997C3769.03 444.863 3777.33 444.295 3784.87 441.368C3792.47 438.441 3798.96 433.291 3803.57 426.593C3808.17 419.902 3810.58 411.972 3810.58 403.861V15.3828" stroke="white" stroke-width="40"/>
<path d="M70.3008 506.999V14.5547" stroke="white" stroke-width="40"/>
<path d="M282.852 506.999V118.521C282.854 110.41 285.312 102.489 289.905 95.7992C294.498 89.1095 301.008 83.9637 308.584 81.0381C316.158 78.113 324.442 77.5442 332.346 79.4073C340.248 81.2706 347.402 85.4786 352.869 91.4781L660.892 430.077C666.347 436.086 673.499 440.297 681.403 442.169C689.307 444.035 697.593 443.465 705.165 440.541C712.741 437.614 719.251 432.46 723.837 425.765C728.421 419.072 730.872 411.144 730.855 403.033V14.5547" stroke="white" stroke-width="40"/>
<path d="M929.75 453.39V66.1836H1134.85C1160.31 66.1773 1185.52 71.1804 1209.04 80.9077C1232.56 90.635 1253.93 104.895 1271.93 122.874C1289.93 140.854 1304.21 162.199 1313.95 185.691C1323.69 209.183 1328.7 234.361 1328.7 259.788C1328.7 311.134 1308.27 360.378 1271.92 396.687C1235.56 432.995 1186.26 453.39 1134.85 453.39H929.75Z" stroke="white" stroke-width="40"/>
<path d="M2452.09 66.1836H2216.01C2164.6 66.1836 2115.29 86.581 2078.94 122.889C2042.59 159.197 2022.16 208.441 2022.16 259.788C2022.18 311.132 2042.6 360.368 2078.95 396.671C2115.3 432.976 2164.6 453.381 2216.01 453.39H2452.09" stroke="white" stroke-width="40"/>
<path d="M2511.34 454.309H2747.39C2772.86 454.309 2798.08 449.296 2821.61 439.559C2845.13 429.82 2866.51 415.543 2884.53 397.552C2902.52 379.559 2916.79 358.198 2926.52 334.693C2936.27 311.186 2941.26 285.996 2941.24 260.56C2941.21 209.234 2920.78 160.02 2884.43 123.741C2848.09 87.4617 2798.78 67.0884 2747.39 67.1016H2511.34" stroke="white" stroke-width="40"/>
<path d="M1978.13 519.549L1755.45 58.7435C1716.96 -20.8694 1602.79 -19.2067 1566.7 61.5796L1362.09 519.549H1519.21L1671.28 183.884L1732.93 329.123H1656.25L1603.86 446.489H1782.87L1813.91 519.549H1978.13Z" fill="white"/>
</g>
<defs>
<clipPath id="clip0">
<rect width="3890" height="539" fill="white"/>
</clipPath>
</defs>
</svg>
