<svg width="3182" height="674" viewBox="0 0 3182 674" fill="none" xmlns="http://www.w3.org/2000/svg">
<g clip-path="url(#clip0)">
<path fill-rule="evenodd" clip-rule="evenodd" d="M774.479 174.727C774.479 175.256 773.799 175.689 772.968 175.689C771.025 175.689 768.71 178.005 768.71 179.948C768.71 180.779 768.277 181.459 767.748 181.459C767.22 181.459 766.787 182.325 766.787 183.383C766.787 184.44 766.353 185.306 765.825 185.306C765.234 185.306 764.863 190.115 764.863 197.808C764.863 205.503 765.234 210.31 765.825 210.31C766.353 210.31 766.787 210.973 766.787 211.784C766.787 213.699 773.013 219.928 774.928 219.928C775.738 219.928 776.401 220.361 776.401 220.889C776.401 221.488 781.85 221.851 790.823 221.851C799.796 221.851 805.245 221.488 805.245 220.889C805.245 220.361 806.111 219.928 807.169 219.928C808.226 219.928 809.091 219.494 809.091 218.966C809.091 218.436 809.956 218.003 811.014 218.003C812.296 218.003 812.938 217.363 812.938 216.081C812.938 215.023 813.37 214.158 813.898 214.158C814.428 214.158 814.86 213.291 814.86 212.233C814.86 211.175 815.292 210.31 815.822 210.31C816.414 210.31 816.782 205.503 816.782 197.808C816.782 190.115 816.414 185.306 815.822 185.306C815.292 185.306 814.86 184.44 814.86 183.383C814.86 182.325 814.428 181.459 813.898 181.459C813.37 181.459 812.938 180.779 812.938 179.948C812.938 178.005 810.622 175.689 808.679 175.689C807.848 175.689 807.169 175.256 807.169 174.727C807.169 174.124 801.08 173.766 790.823 173.766C780.567 173.766 774.479 174.124 774.479 174.727ZM1666.72 335.332V496.897H1682.1H1697.49V431.502C1697.49 388.546 1697.82 366.106 1698.45 366.106C1698.98 366.106 1699.41 364.376 1699.41 362.26C1699.41 360.144 1699.84 358.413 1700.37 358.413C1700.9 358.413 1701.33 357.115 1701.33 355.528C1701.33 353.94 1701.77 352.642 1702.3 352.642C1702.82 352.642 1703.26 351.345 1703.26 349.757C1703.26 348.17 1703.69 346.872 1704.22 346.872C1704.75 346.872 1705.18 346.007 1705.18 344.949C1705.18 343.892 1705.61 343.025 1706.14 343.025C1706.67 343.025 1707.1 342.16 1707.1 341.102C1707.1 340.044 1707.53 339.179 1708.06 339.179C1708.59 339.179 1709.02 338.408 1709.02 337.468C1709.02 336.526 1709.89 335.133 1710.95 334.37C1712.01 333.608 1712.87 332.422 1712.87 331.735C1712.87 330.11 1724.96 318.021 1726.58 318.021C1727.27 318.021 1728.45 317.156 1729.22 316.099C1729.98 315.039 1731.37 314.174 1732.31 314.174C1733.25 314.174 1734.02 313.741 1734.02 313.213C1734.02 312.684 1734.89 312.251 1735.95 312.251C1737 312.251 1737.87 311.819 1737.87 311.289C1737.87 310.761 1739.17 310.328 1740.75 310.328C1742.34 310.328 1743.64 309.894 1743.64 309.366C1743.64 308.836 1745.8 308.404 1748.45 308.404C1751.09 308.404 1753.25 307.971 1753.25 307.443C1753.25 306.872 1756.78 306.481 1761.91 306.481C1767.03 306.481 1770.56 306.872 1770.56 307.443C1770.56 307.971 1772.72 308.404 1775.37 308.404C1778.01 308.404 1780.17 308.836 1780.17 309.366C1780.17 309.894 1781.47 310.328 1783.06 310.328C1784.64 310.328 1785.94 310.761 1785.94 311.289C1785.94 311.819 1786.81 312.251 1787.87 312.251C1788.92 312.251 1789.79 312.684 1789.79 313.213C1789.79 313.741 1790.44 314.174 1791.25 314.174C1793.15 314.174 1807.1 328.128 1807.1 330.028C1807.1 330.829 1807.53 331.484 1808.06 331.484C1808.59 331.484 1809.02 332.784 1809.02 334.37C1809.02 335.957 1809.45 337.255 1809.98 337.255C1810.51 337.255 1810.94 338.121 1810.94 339.179C1810.94 340.237 1811.37 341.102 1811.9 341.102C1812.43 341.102 1812.86 343.266 1812.86 345.91C1812.86 348.555 1813.3 350.72 1813.82 350.72C1814.46 350.72 1814.79 375.723 1814.79 423.807V496.897H1830.17H1845.55V420.922C1845.55 370.915 1845.23 344.949 1844.59 344.949C1844.06 344.949 1843.63 343.218 1843.63 341.102C1843.63 338.986 1843.2 337.255 1842.67 337.255C1842.14 337.255 1841.71 335.525 1841.71 333.409C1841.71 331.293 1841.28 329.562 1840.75 329.562C1840.22 329.562 1839.78 328.262 1839.78 326.677C1839.78 325.089 1839.35 323.791 1838.82 323.791C1838.29 323.791 1837.86 322.926 1837.86 321.869C1837.86 320.811 1837.43 319.944 1836.9 319.944C1836.37 319.944 1835.94 319.079 1835.94 318.021C1835.94 316.963 1835.51 316.099 1834.98 316.099C1834.45 316.099 1834.02 315.327 1834.02 314.387C1834.02 313.446 1833.15 312.053 1832.09 311.289C1831.04 310.527 1830.17 309.34 1830.17 308.655C1830.17 307.029 1818.08 294.941 1816.46 294.941C1815.77 294.941 1814.59 294.076 1813.82 293.016C1813.06 291.958 1811.67 291.093 1810.73 291.093C1809.79 291.093 1809.02 290.661 1809.02 290.131C1809.02 289.603 1808.15 289.17 1807.1 289.17C1806.04 289.17 1805.17 288.738 1805.17 288.208C1805.17 287.68 1803.87 287.246 1802.29 287.246C1800.7 287.246 1799.4 286.813 1799.4 286.285C1799.4 285.755 1798.11 285.323 1796.52 285.323C1794.93 285.323 1793.63 284.89 1793.63 284.361C1793.63 283.833 1791.9 283.4 1789.79 283.4C1787.67 283.4 1785.94 282.968 1785.94 282.438C1785.94 281.829 1779.21 281.476 1767.67 281.476C1756.14 281.476 1749.41 281.829 1749.41 282.438C1749.41 282.968 1747.24 283.4 1744.6 283.4C1741.96 283.4 1739.79 283.833 1739.79 284.361C1739.79 284.89 1738.49 285.323 1736.91 285.323C1735.32 285.323 1734.02 285.755 1734.02 286.285C1734.02 286.813 1733.16 287.246 1732.1 287.246C1731.04 287.246 1730.18 287.68 1730.18 288.208C1730.18 288.738 1729.31 289.17 1728.25 289.17C1727.2 289.17 1726.33 289.603 1726.33 290.131C1726.33 290.661 1725.56 291.093 1724.62 291.093C1723.68 291.093 1722.29 291.958 1721.52 293.016C1720.76 294.076 1719.58 294.941 1718.89 294.941C1717.15 294.941 1701.33 310.948 1701.33 312.717C1701.33 313.519 1700.9 314.174 1700.37 314.174C1699.84 314.174 1699.41 314.853 1699.41 315.685C1699.41 317.143 1697.24 319.944 1696.11 319.944C1695.81 319.944 1695.56 312.154 1695.56 302.633C1695.56 291.735 1695.92 285.323 1696.53 285.323C1697.16 285.323 1697.49 266.09 1697.49 229.544V173.766H1682.1H1666.72V335.332ZM2145.52 174.727C2145.52 175.256 2144.66 175.689 2143.61 175.689C2142.55 175.689 2141.69 176.122 2141.69 176.651C2141.69 177.18 2140.83 177.612 2139.76 177.612C2138.49 177.612 2137.83 178.254 2137.83 179.536C2137.83 180.594 2137.4 181.459 2136.88 181.459C2136.35 181.459 2135.92 182.325 2135.92 183.383C2135.92 184.44 2135.49 185.306 2134.95 185.306C2134.31 185.306 2133.99 235.956 2133.99 335.332C2133.99 434.708 2134.31 485.357 2134.95 485.357C2135.49 485.357 2135.92 486.224 2135.92 487.281C2135.92 488.339 2136.35 489.204 2136.88 489.204C2137.4 489.204 2137.83 489.884 2137.83 490.715C2137.83 492.658 2140.15 494.974 2142.1 494.974C2142.92 494.974 2143.61 495.407 2143.61 495.937C2143.61 496.532 2148.74 496.897 2157.07 496.897C2165.4 496.897 2170.53 496.532 2170.53 495.937C2170.53 495.407 2171.2 494.974 2172.05 494.974C2173.97 494.974 2176.3 492.658 2176.3 490.715C2176.3 489.884 2176.73 489.204 2177.27 489.204C2177.79 489.204 2178.22 488.339 2178.22 487.281C2178.22 486.224 2178.65 485.357 2179.18 485.357C2179.78 485.357 2180.15 480.549 2180.15 472.856C2180.15 465.979 2180.39 460.353 2180.69 460.353C2181.74 460.353 2183.99 463.109 2183.99 464.399C2183.99 465.114 2184.85 466.322 2185.92 467.086C2186.96 467.848 2187.84 469.031 2187.84 469.716C2187.84 471.467 2201.92 485.357 2203.68 485.357C2204.48 485.357 2205.14 485.789 2205.14 486.319C2205.14 486.847 2206 487.281 2207.07 487.281C2208.12 487.281 2209 487.714 2209 488.242C2209 488.772 2209.86 489.204 2210.9 489.204C2211.97 489.204 2212.83 489.637 2212.83 490.167C2212.83 490.694 2213.69 491.127 2214.76 491.127C2215.81 491.127 2216.69 491.559 2216.69 492.089C2216.69 492.619 2217.98 493.052 2219.57 493.052C2221.14 493.052 2222.45 493.484 2222.45 494.012C2222.45 494.542 2224.61 494.974 2227.26 494.974C2229.9 494.974 2232.06 495.407 2232.06 495.937C2232.06 496.545 2239.11 496.897 2251.3 496.897C2263.46 496.897 2270.52 496.545 2270.52 495.937C2270.52 495.407 2272.26 494.974 2274.38 494.974C2276.49 494.974 2278.21 494.542 2278.21 494.012C2278.21 493.484 2279.5 493.052 2281.1 493.052C2282.69 493.052 2283.98 492.619 2283.98 492.089C2283.98 491.559 2285.29 491.127 2286.86 491.127C2288.45 491.127 2289.74 490.694 2289.74 490.167C2289.74 489.637 2290.62 489.204 2291.67 489.204C2292.74 489.204 2293.6 488.772 2293.6 488.242C2293.6 487.714 2294.46 487.281 2295.53 487.281C2296.58 487.281 2297.44 486.847 2297.44 486.319C2297.44 485.789 2298.22 485.357 2299.16 485.357C2300.09 485.357 2301.48 484.492 2302.25 483.434C2303.01 482.376 2304.23 481.511 2304.96 481.511C2305.69 481.511 2307.51 480.212 2308.98 478.626C2310.46 477.038 2312.17 475.741 2312.75 475.741C2314.24 475.741 2328.21 461.619 2328.21 460.1C2328.21 459.415 2329.07 458.23 2330.14 457.468C2331.18 456.706 2332.06 455.407 2332.06 454.583C2332.06 453.759 2332.92 452.46 2333.97 451.698C2335.04 450.936 2335.9 449.541 2335.9 448.599C2335.9 447.66 2336.33 446.89 2336.86 446.89C2337.4 446.89 2337.83 446.023 2337.83 444.965C2337.83 443.908 2338.26 443.043 2338.78 443.043C2339.31 443.043 2339.76 442.178 2339.76 441.12C2339.76 440.06 2340.19 439.195 2340.71 439.195C2341.24 439.195 2341.67 437.898 2341.67 436.31C2341.67 434.724 2342.1 433.425 2342.64 433.425C2343.16 433.425 2343.59 432.56 2343.59 431.502C2343.59 430.444 2344.02 429.578 2344.55 429.578C2345.09 429.578 2345.52 427.848 2345.52 425.732C2345.52 423.617 2345.95 421.885 2346.48 421.885C2347.02 421.885 2347.43 419.32 2347.43 416.115C2347.43 412.782 2347.86 410.344 2348.44 410.344C2349.1 410.344 2349.28 402.719 2349 387.024C2348.54 362.269 2347.81 352.642 2346.38 352.642C2345.91 352.642 2345.52 351.345 2345.52 349.757C2345.52 348.17 2345.09 346.872 2344.55 346.872C2344.02 346.872 2343.59 346 2343.59 344.933C2343.59 342.225 2341.35 335.332 2340.47 335.332C2340.08 335.332 2339.76 334.467 2339.76 333.409C2339.76 332.351 2339.31 331.484 2338.78 331.484C2338.26 331.484 2337.83 330.619 2337.83 329.562C2337.83 328.504 2337.4 327.639 2336.86 327.639C2336.33 327.639 2335.9 326.868 2335.9 325.928C2335.9 324.986 2335.04 323.593 2333.97 322.829C2332.92 322.067 2332.06 320.886 2332.06 320.202C2332.06 318.581 2312.26 298.786 2310.65 298.786C2309.96 298.786 2308.78 297.921 2308.01 296.863C2307.26 295.806 2305.95 294.941 2305.13 294.941C2304.31 294.941 2303.01 294.076 2302.25 293.016C2301.48 291.958 2300.09 291.093 2299.16 291.093C2298.22 291.093 2297.44 290.661 2297.44 290.131C2297.44 289.603 2296.14 289.17 2294.55 289.17C2292.98 289.17 2291.67 288.738 2291.67 288.208C2291.67 287.68 2290.81 287.246 2289.74 287.246C2288.7 287.246 2287.83 286.813 2287.83 286.285C2287.83 285.755 2286.52 285.323 2284.95 285.323C2283.36 285.323 2282.07 284.89 2282.07 284.361C2282.07 283.833 2279.9 283.4 2277.26 283.4C2274.6 283.4 2272.45 282.968 2272.45 282.438C2272.45 281.827 2265.07 281.476 2252.25 281.476C2239.43 281.476 2232.06 281.827 2232.06 282.438C2232.06 282.973 2229.49 283.4 2226.29 283.4C2223.09 283.4 2220.53 283.827 2220.53 284.361C2220.53 284.89 2219.23 285.323 2217.64 285.323C2216.05 285.323 2214.76 285.755 2214.76 286.285C2214.76 286.813 2213.45 287.246 2211.88 287.246C2210.29 287.246 2209 287.68 2209 288.208C2209 288.738 2208.12 289.17 2207.07 289.17C2206 289.17 2205.14 289.603 2205.14 290.131C2205.14 290.661 2204.28 291.093 2203.21 291.093C2202.16 291.093 2201.3 291.526 2201.3 292.055C2201.3 292.583 2200.42 293.016 2199.37 293.016C2198.31 293.016 2197.45 293.45 2197.45 293.978C2197.45 294.508 2196.77 294.941 2195.97 294.941C2195.14 294.941 2191.49 297.97 2187.84 301.671C2184.19 305.374 2180.96 308.404 2180.68 308.404C2180.38 308.404 2180.15 305.374 2180.15 301.671C2180.15 297.826 2180.56 294.941 2181.11 294.941C2181.74 294.941 2182.06 276.025 2182.06 240.124C2182.06 204.22 2181.74 185.306 2181.11 185.306C2180.58 185.306 2180.15 184.205 2180.15 182.858C2180.15 180.159 2176.28 175.689 2173.94 175.689C2173.11 175.689 2172.46 175.256 2172.46 174.727C2172.46 174.132 2167.33 173.766 2159 173.766C2150.65 173.766 2145.52 174.132 2145.52 174.727ZM2407.05 174.727C2407.05 175.256 2406.39 175.689 2405.57 175.689C2403.64 175.689 2399.35 179.972 2399.35 181.897C2399.35 182.714 2398.92 183.383 2398.4 183.383C2397.76 183.383 2397.44 234.674 2397.44 335.332C2397.44 435.99 2397.76 487.281 2398.4 487.281C2398.92 487.281 2399.35 487.95 2399.35 488.766C2399.35 490.691 2403.64 494.974 2405.57 494.974C2406.39 494.974 2407.05 495.407 2407.05 495.937C2407.05 496.532 2412.18 496.897 2420.5 496.897C2428.85 496.897 2433.96 496.532 2433.96 495.937C2433.96 495.407 2434.64 494.974 2435.44 494.974C2436.27 494.974 2438.42 493.475 2440.25 491.64C2442.8 489.094 2443.58 487.504 2443.58 484.907C2443.58 483.039 2444.01 481.511 2444.56 481.511C2445.19 481.511 2445.51 432.143 2445.51 335.332C2445.51 238.519 2445.19 189.152 2444.56 189.152C2444.01 189.152 2443.58 187.623 2443.58 185.755C2443.58 183.16 2442.8 181.569 2440.25 179.023C2438.42 177.189 2436.27 175.689 2435.44 175.689C2434.64 175.689 2433.96 175.256 2433.96 174.727C2433.96 174.132 2428.85 173.766 2420.5 173.766C2412.18 173.766 2407.05 174.132 2407.05 174.727ZM3003.17 174.727C3003.17 175.256 3002.49 175.689 3001.67 175.689C2999.35 175.689 2995.47 180.159 2995.47 182.858C2995.47 184.205 2995.04 185.306 2994.5 185.306C2993.86 185.306 2993.55 235.956 2993.55 335.332C2993.55 434.708 2993.86 485.357 2994.5 485.357C2995.04 485.357 2995.47 486.224 2995.47 487.281C2995.47 488.339 2995.9 489.204 2996.43 489.204C2996.95 489.204 2997.4 490.069 2997.4 491.127C2997.4 492.409 2998.04 493.052 2999.31 493.052C3000.38 493.052 3001.24 493.484 3001.24 494.012C3001.24 494.542 3002.1 494.974 3003.17 494.974C3004.21 494.974 3005.08 495.407 3005.08 495.937C3005.08 496.528 3009.89 496.897 3017.58 496.897C3025.27 496.897 3030.08 496.528 3030.08 495.937C3030.08 495.407 3030.74 494.974 3031.56 494.974C3033.98 494.974 3039.7 488.579 3039.7 485.87C3039.7 484.531 3040.13 483.434 3040.66 483.434C3041.28 483.434 3041.61 474.605 3041.61 458.869V434.305L3049.31 426.693C3053.54 422.506 3057 418.623 3057 418.063C3057 417.504 3060.26 413.793 3064.22 409.818L3071.45 402.591L3073.84 404.982C3075.15 406.297 3076.24 407.946 3076.24 408.646C3076.24 409.346 3077.1 410.543 3078.15 411.307C3079.22 412.069 3080.08 413.368 3080.08 414.192C3080.08 415.015 3080.94 416.313 3082.01 417.077C3083.05 417.839 3083.93 419.138 3083.93 419.962C3083.93 420.786 3084.79 422.083 3085.84 422.847C3086.91 423.609 3087.77 424.908 3087.77 425.732C3087.77 426.556 3088.63 427.853 3089.7 428.617C3090.75 429.379 3091.61 430.679 3091.61 431.502C3091.61 432.326 3092.49 433.624 3093.54 434.387C3094.6 435.149 3095.46 436.449 3095.46 437.273C3095.46 438.096 3096.32 439.396 3097.39 440.158C3098.44 440.92 3099.3 442.219 3099.3 443.043C3099.3 443.866 3100.18 445.166 3101.23 445.928C3102.3 446.69 3103.16 447.91 3103.16 448.639C3103.16 449.367 3104.45 451.177 3106.04 452.66C3107.63 454.141 3108.92 455.952 3108.92 456.68C3108.92 457.408 3109.78 458.629 3110.85 459.391C3111.9 460.155 3112.78 461.452 3112.78 462.276C3112.78 463.1 3113.64 464.399 3114.69 465.161C3115.75 465.925 3116.61 467.222 3116.61 468.046C3116.61 468.87 3117.48 470.169 3118.54 470.931C3119.59 471.695 3120.45 472.993 3120.45 473.816C3120.45 474.64 3121.33 475.939 3122.38 476.701C3123.45 477.465 3124.31 478.649 3124.31 479.334C3124.31 481.084 3138.38 494.974 3140.16 494.974C3140.97 494.974 3141.62 495.407 3141.62 495.937C3141.62 496.54 3147.7 496.897 3157.96 496.897C3168.22 496.897 3174.3 496.54 3174.3 495.937C3174.3 495.407 3174.98 494.974 3175.82 494.974C3177.76 494.974 3180.07 492.658 3180.07 490.715C3180.07 489.884 3180.5 489.204 3181.04 489.204C3181.56 489.204 3181.99 487.907 3181.99 486.319C3181.99 484.731 3181.56 483.434 3181.04 483.434C3180.5 483.434 3180.07 482.137 3180.07 480.549C3180.07 478.961 3179.64 477.664 3179.11 477.664C3178.59 477.664 3178.14 476.973 3178.14 476.127C3178.14 475.28 3176.85 473.375 3175.26 471.894C3173.68 470.411 3172.37 468.602 3172.37 467.874C3172.37 467.144 3171.51 465.925 3170.46 465.161C3169.4 464.399 3168.54 463.1 3168.54 462.276C3168.54 461.452 3167.68 460.155 3166.61 459.391C3165.56 458.629 3164.68 457.33 3164.68 456.506C3164.68 455.682 3163.82 454.385 3162.77 453.621C3161.71 452.859 3160.84 451.638 3160.84 450.91C3160.84 450.181 3159.55 448.371 3157.96 446.89C3156.37 445.407 3155.08 443.597 3155.08 442.869C3155.08 442.14 3154.2 440.92 3153.15 440.158C3152.08 439.396 3151.22 438.096 3151.22 437.273C3151.22 436.449 3150.36 435.149 3149.3 434.387C3148.25 433.624 3147.39 432.326 3147.39 431.502C3147.39 430.679 3146.53 429.379 3145.46 428.617C3144.41 427.853 3143.53 426.556 3143.53 425.732C3143.53 424.908 3142.67 423.609 3141.62 422.847C3140.55 422.083 3139.69 420.864 3139.69 420.134C3139.69 419.406 3138.38 417.597 3136.81 416.115C3135.22 414.634 3133.93 412.823 3133.93 412.095C3133.93 411.367 3133.05 410.146 3132 409.382C3130.93 408.62 3130.07 407.323 3130.07 406.497C3130.07 405.673 3129.21 404.376 3128.14 403.612C3127.1 402.85 3126.23 401.552 3126.23 400.727C3126.23 399.903 3125.36 398.605 3124.31 397.842C3123.24 397.08 3122.38 395.782 3122.38 394.957C3122.38 394.133 3121.52 392.835 3120.45 392.071C3119.4 391.309 3118.54 390.012 3118.54 389.186C3118.54 388.363 3117.68 387.065 3116.61 386.301C3115.57 385.539 3114.69 384.319 3114.69 383.59C3114.69 382.862 3113.39 381.052 3111.8 379.571C3110.21 378.088 3108.92 376.277 3108.92 375.551C3108.92 374.821 3108.06 373.6 3106.99 372.838C3103.98 370.655 3104.63 367.341 3108.92 363.22C3111.04 361.187 3112.78 359.045 3112.78 358.461C3112.78 357.877 3118.39 351.796 3125.26 344.949C3132.15 338.101 3137.76 332.044 3137.76 331.486C3137.76 330.93 3143.83 324.437 3151.22 317.059C3158.64 309.681 3164.68 303.081 3164.68 302.39C3164.68 301.699 3165.56 300.51 3166.61 299.748C3167.68 298.986 3168.54 297.593 3168.54 296.652C3168.54 295.71 3168.97 294.941 3169.49 294.941C3170.02 294.941 3170.46 293.407 3170.46 291.531C3170.46 287.886 3167.04 283.4 3164.25 283.4C3163.43 283.4 3162.77 282.968 3162.77 282.438C3162.77 281.841 3157.32 281.476 3148.34 281.476C3139.37 281.476 3133.93 281.841 3133.93 282.438C3133.93 282.968 3133.05 283.4 3132 283.4C3130.93 283.4 3130.07 283.833 3130.07 284.361C3130.07 284.89 3129.38 285.323 3128.54 285.323C3127.69 285.323 3125.79 286.622 3124.31 288.208C3122.83 289.796 3121.13 291.093 3120.53 291.093C3119.16 291.093 3108.92 301.287 3108.92 302.65C3108.92 303.21 3105.03 307.531 3100.27 312.251C3095.52 316.971 3091.61 321.298 3091.61 321.869C3091.61 322.438 3087.71 326.765 3082.96 331.484C3078.21 336.204 3074.31 340.533 3074.31 341.102C3074.31 341.671 3070.42 346 3065.66 350.72C3060.89 355.44 3057 359.757 3057 360.315C3057 361.315 3043.07 375.723 3042.12 375.723C3041.84 375.723 3041.61 333.312 3041.61 281.476C3041.61 219.286 3041.29 187.23 3040.66 187.23C3040.13 187.23 3039.7 185.931 3039.7 184.344C3039.7 182.758 3039.27 181.459 3038.73 181.459C3038.21 181.459 3037.78 180.594 3037.78 179.536C3037.78 178.254 3037.14 177.612 3035.85 177.612C3034.8 177.612 3033.92 177.18 3033.92 176.651C3033.92 176.122 3033.06 175.689 3032.01 175.689C3030.94 175.689 3030.08 175.256 3030.08 174.727C3030.08 174.132 3024.95 173.766 3016.62 173.766C3008.29 173.766 3003.17 174.132 3003.17 174.727ZM1145.6 217.043C1145.6 217.571 1144.49 218.003 1143.13 218.003C1140.35 218.003 1137.91 219.994 1137.91 222.263C1137.91 223.094 1137.48 223.774 1136.95 223.774C1136.42 223.774 1135.99 224.64 1135.99 225.698C1135.99 226.756 1135.56 227.621 1135.03 227.621C1134.41 227.621 1134.07 237.239 1134.07 254.549V281.476H1117.72C1107.47 281.476 1101.38 281.835 1101.38 282.438C1101.38 282.968 1100.71 283.4 1099.89 283.4C1099.07 283.4 1097.34 284.462 1096.05 285.761C1093.8 288.006 1093.69 288.685 1093.69 299.748C1093.69 310.811 1093.8 311.491 1096.05 313.736C1097.34 315.035 1099.07 316.099 1099.89 316.099C1100.71 316.099 1101.38 316.531 1101.38 317.059C1101.38 317.662 1107.47 318.021 1117.72 318.021H1134.07V381.493C1134.07 423.167 1134.4 444.965 1135.03 444.965C1135.56 444.965 1135.99 447.53 1135.99 450.736C1135.99 453.941 1136.42 456.506 1136.95 456.506C1137.48 456.506 1137.91 457.805 1137.91 459.391C1137.91 460.979 1138.35 462.276 1138.88 462.276C1139.4 462.276 1139.84 463.575 1139.84 465.161C1139.84 466.749 1140.27 468.046 1140.8 468.046C1141.33 468.046 1141.76 468.818 1141.76 469.757C1141.76 470.699 1142.62 472.092 1143.68 472.856C1144.74 473.618 1145.6 474.807 1145.6 475.498C1145.6 477.13 1153.83 485.357 1155.46 485.357C1156.15 485.357 1157.34 486.224 1158.1 487.281C1158.87 488.339 1160.26 489.204 1161.2 489.204C1162.14 489.204 1162.91 489.637 1162.91 490.167C1162.91 490.694 1163.78 491.127 1164.84 491.127C1165.89 491.127 1166.76 491.559 1166.76 492.089C1166.76 492.619 1168.49 493.052 1170.6 493.052C1172.72 493.052 1174.45 493.484 1174.45 494.012C1174.45 494.542 1176.18 494.974 1178.29 494.974C1180.41 494.974 1182.14 495.407 1182.14 495.937C1182.14 496.551 1190.47 496.897 1205.22 496.897C1219.96 496.897 1228.29 496.551 1228.29 495.937C1228.29 495.407 1228.96 494.974 1229.78 494.974C1232.11 494.974 1235.98 490.504 1235.98 487.806C1235.98 486.458 1236.42 485.357 1236.94 485.357C1237.5 485.357 1237.91 482.152 1237.91 477.664C1237.91 473.176 1237.5 469.971 1236.94 469.971C1236.42 469.971 1235.98 468.672 1235.98 467.086C1235.98 465.498 1235.55 464.201 1235.02 464.201C1234.49 464.201 1234.06 463.334 1234.06 462.276C1234.06 460.995 1233.42 460.353 1232.14 460.353C1231.08 460.353 1230.21 459.921 1230.21 459.391C1230.21 458.863 1228.92 458.43 1227.33 458.43C1225.74 458.43 1224.45 457.996 1224.45 457.468C1224.45 456.873 1219.32 456.506 1210.99 456.506C1202.65 456.506 1197.52 456.141 1197.52 455.545C1197.52 455.016 1196.66 454.583 1195.6 454.583C1194.54 454.583 1193.68 454.151 1193.68 453.621C1193.68 453.093 1193.01 452.66 1192.19 452.66C1190.27 452.66 1185.99 448.377 1185.99 446.452C1185.99 445.634 1185.55 444.965 1185.03 444.965C1184.5 444.965 1184.06 443.668 1184.06 442.08C1184.06 440.495 1183.63 439.195 1183.1 439.195C1182.47 439.195 1182.14 418.359 1182.14 378.608V318.021H1205.73H1229.32L1232.65 314.687C1234.48 312.854 1235.98 310.69 1235.98 309.879C1235.98 309.068 1236.42 308.404 1236.94 308.404C1237.5 308.404 1237.91 305.198 1237.91 300.711C1237.91 296.223 1237.5 293.016 1236.94 293.016C1236.42 293.016 1235.98 291.915 1235.98 290.569C1235.98 287.869 1232.11 283.4 1229.78 283.4C1228.96 283.4 1228.29 282.968 1228.29 282.438C1228.29 281.824 1219.96 281.476 1205.22 281.476H1182.14V254.549C1182.14 237.239 1181.8 227.621 1181.18 227.621C1180.65 227.621 1180.22 226.756 1180.22 225.698C1180.22 224.64 1179.78 223.774 1179.26 223.774C1178.73 223.774 1178.29 222.909 1178.29 221.851C1178.29 220.568 1177.65 219.928 1176.37 219.928C1175.32 219.928 1174.45 219.494 1174.45 218.966C1174.45 218.436 1173.58 218.003 1172.53 218.003C1171.47 218.003 1170.6 217.571 1170.6 217.043C1170.6 216.451 1165.8 216.081 1158.1 216.081C1150.41 216.081 1145.6 216.451 1145.6 217.043ZM1534.04 248.779V281.476H1512.89H1491.73V292.604C1491.73 300.967 1492.07 304.075 1493.11 305.107C1494.21 306.208 1498.4 306.481 1514.26 306.481H1534.04V373.8C1534.04 418.037 1534.37 441.12 1535 441.12C1535.56 441.12 1535.96 444.325 1535.96 448.813C1535.96 453.301 1536.36 456.506 1536.92 456.506C1537.45 456.506 1537.88 458.238 1537.88 460.353C1537.88 462.469 1538.32 464.201 1538.85 464.201C1539.37 464.201 1539.81 465.066 1539.81 466.123C1539.81 467.181 1540.24 468.046 1540.77 468.046C1541.3 468.046 1541.73 468.913 1541.73 469.971C1541.73 471.029 1542.16 471.894 1542.69 471.894C1543.22 471.894 1543.65 472.759 1543.65 473.816C1543.65 474.874 1544.08 475.741 1544.61 475.741C1545.14 475.741 1545.58 476.404 1545.58 477.214C1545.58 479.016 1551.75 485.357 1553.5 485.357C1554.2 485.357 1555.39 486.224 1556.15 487.281C1556.91 488.339 1558.31 489.204 1559.25 489.204C1560.19 489.204 1560.96 489.637 1560.96 490.167C1560.96 490.694 1561.83 491.127 1562.88 491.127C1563.94 491.127 1564.81 491.559 1564.81 492.089C1564.81 492.619 1566.1 493.052 1567.69 493.052C1569.28 493.052 1570.57 493.484 1570.57 494.012C1570.57 494.542 1572.31 494.974 1574.42 494.974C1576.54 494.974 1578.26 495.407 1578.26 495.937C1578.26 496.551 1586.6 496.897 1601.34 496.897H1624.42V484.808C1624.42 475.612 1624.09 472.388 1623.04 471.345C1621.95 470.248 1617.88 469.971 1602.85 469.971C1590.95 469.971 1584.03 469.617 1584.03 469.009C1584.03 468.479 1582.94 468.046 1581.61 468.046C1578.26 468.046 1568.65 458.44 1568.65 455.085C1568.65 453.752 1568.27 452.66 1567.79 452.66C1565.82 452.66 1565.45 442.078 1565.13 375.963L1564.78 306.481H1593.22C1616.59 306.481 1621.91 306.236 1623.04 305.107C1624.07 304.075 1624.42 300.967 1624.42 292.604V281.476H1594.61H1564.81V248.779V216.081H1549.42H1534.04V248.779ZM778.325 282.438C778.325 282.968 777.661 283.4 776.85 283.4C774.935 283.4 768.71 289.627 768.71 291.542C768.71 292.353 768.277 293.016 767.748 293.016C767.113 293.016 766.787 325.714 766.787 389.186C766.787 452.66 767.113 485.357 767.748 485.357C768.277 485.357 768.71 486.224 768.71 487.281C768.71 488.339 769.142 489.204 769.672 489.204C770.2 489.204 770.632 490.069 770.632 491.127C770.632 492.409 771.274 493.052 772.556 493.052C773.614 493.052 774.479 493.484 774.479 494.012C774.479 494.542 775.343 494.974 776.401 494.974C777.458 494.974 778.325 495.407 778.325 495.937C778.325 496.528 783.132 496.897 790.823 496.897C798.516 496.897 803.322 496.528 803.322 495.937C803.322 495.407 804.187 494.974 805.245 494.974C806.302 494.974 807.169 494.542 807.169 494.012C807.169 493.484 808.034 493.052 809.091 493.052C810.373 493.052 811.014 492.409 811.014 491.127C811.014 490.069 811.448 489.204 811.976 489.204C812.505 489.204 812.938 488.339 812.938 487.281C812.938 486.224 813.37 485.357 813.898 485.357C814.532 485.357 814.86 452.66 814.86 389.186C814.86 325.714 814.532 293.016 813.898 293.016C813.37 293.016 812.938 292.353 812.938 291.542C812.938 289.627 806.71 283.4 804.796 283.4C803.985 283.4 803.322 282.968 803.322 282.438C803.322 281.846 798.516 281.476 790.823 281.476C783.132 281.476 778.325 281.846 778.325 282.438ZM887.932 282.438C887.932 282.968 887.067 283.4 886.01 283.4C884.952 283.4 884.085 283.833 884.085 284.361C884.085 284.89 883.221 285.323 882.163 285.323C880.881 285.323 880.241 285.965 880.241 287.246C880.241 288.304 879.807 289.17 879.279 289.17C878.749 289.17 878.317 290.468 878.317 292.055C878.317 293.641 877.884 294.941 877.356 294.941C876.722 294.941 876.394 326.997 876.394 389.186C876.394 451.378 876.722 483.434 877.356 483.434C877.884 483.434 878.317 484.531 878.317 485.87C878.317 488.579 884.035 494.974 886.457 494.974C887.267 494.974 887.932 495.407 887.932 495.937C887.932 496.532 893.059 496.897 901.392 496.897C909.725 496.897 914.853 496.532 914.853 495.937C914.853 495.407 915.522 494.974 916.338 494.974C918.262 494.974 922.545 490.691 922.545 488.766C922.545 487.95 922.977 487.281 923.507 487.281C924.136 487.281 924.467 467.726 924.467 430.54C924.467 393.354 924.8 373.8 925.429 373.8C925.959 373.8 926.391 371.636 926.391 368.991C926.391 366.347 926.823 364.183 927.351 364.183C927.881 364.183 928.313 362.451 928.313 360.335C928.313 358.22 928.746 356.49 929.275 356.49C929.803 356.49 930.236 355.623 930.236 354.565C930.236 353.507 930.67 352.642 931.198 352.642C931.727 352.642 932.16 351.777 932.16 350.72C932.16 349.662 932.592 348.795 933.12 348.795C933.65 348.795 934.082 348.026 934.082 347.084C934.082 346.144 934.947 344.749 936.004 343.987C937.062 343.225 937.929 342.038 937.929 341.353C937.929 339.726 950.014 327.639 951.639 327.639C952.324 327.639 953.511 326.772 954.273 325.714C955.035 324.656 956.429 323.791 957.371 323.791C958.31 323.791 959.08 323.359 959.08 322.829C959.08 322.301 960.811 321.869 962.926 321.869C965.041 321.869 966.772 321.434 966.772 320.906C966.772 320.315 971.579 319.944 979.27 319.944C986.963 319.944 991.77 320.315 991.77 320.906C991.77 321.434 993.069 321.869 994.654 321.869C996.242 321.869 997.539 322.301 997.539 322.829C997.539 323.359 998.403 323.791 999.463 323.791C1000.52 323.791 1001.39 324.224 1001.39 324.754C1001.39 325.282 1002.15 325.714 1003.1 325.714C1004.04 325.714 1005.43 326.581 1006.19 327.639C1006.96 328.697 1008.15 329.562 1008.85 329.562C1010.61 329.562 1014.84 333.952 1014.84 335.77C1014.84 336.586 1015.28 337.255 1015.81 337.255C1016.33 337.255 1016.77 338.121 1016.77 339.179C1016.77 340.237 1017.2 341.102 1017.73 341.102C1018.26 341.102 1018.69 341.967 1018.69 343.025C1018.69 344.083 1019.12 344.949 1019.65 344.949C1020.18 344.949 1020.61 346.247 1020.61 347.835C1020.61 349.42 1021.05 350.72 1021.58 350.72C1022.1 350.72 1022.54 352.882 1022.54 355.528C1022.54 358.173 1022.97 360.335 1023.5 360.335C1024.13 360.335 1024.46 382.136 1024.46 423.807C1024.46 465.481 1024.79 487.281 1025.42 487.281C1025.95 487.281 1026.38 487.95 1026.38 488.766C1026.38 490.691 1030.67 494.974 1032.59 494.974C1033.41 494.974 1034.08 495.407 1034.08 495.937C1034.08 496.532 1039.2 496.897 1047.54 496.897C1055.87 496.897 1061 496.532 1061 495.937C1061 495.407 1061.86 494.974 1062.92 494.974C1063.98 494.974 1064.84 494.542 1064.84 494.012C1064.84 493.484 1065.71 493.052 1066.76 493.052C1068.05 493.052 1068.69 492.409 1068.69 491.127C1068.69 490.069 1069.12 489.204 1069.65 489.204C1070.18 489.204 1070.61 488.339 1070.61 487.281C1070.61 486.224 1071.04 485.357 1071.57 485.357C1072.2 485.357 1072.53 462.596 1072.53 419C1072.53 375.403 1072.2 352.642 1071.57 352.642C1071.02 352.642 1070.61 349.757 1070.61 345.91C1070.61 342.064 1070.2 339.179 1069.65 339.179C1069.12 339.179 1068.69 337.447 1068.69 335.332C1068.69 333.216 1068.26 331.484 1067.73 331.484C1067.2 331.484 1066.76 330.187 1066.76 328.599C1066.76 327.014 1066.33 325.714 1065.8 325.714C1065.27 325.714 1064.84 324.849 1064.84 323.791C1064.84 322.734 1064.41 321.869 1063.88 321.869C1063.35 321.869 1062.92 321.002 1062.92 319.944C1062.92 318.886 1062.49 318.021 1061.96 318.021C1061.43 318.021 1061 317.25 1061 316.31C1061 315.368 1060.13 313.975 1059.07 313.213C1058.02 312.45 1057.15 311.263 1057.15 310.575C1057.15 308.945 1046.99 298.786 1045.36 298.786C1044.68 298.786 1043.49 297.921 1042.73 296.863C1041.96 295.806 1040.67 294.941 1039.84 294.941C1039.02 294.941 1037.72 294.076 1036.96 293.016C1036.2 291.958 1034.8 291.093 1033.86 291.093C1032.92 291.093 1032.15 290.661 1032.15 290.131C1032.15 289.603 1031.29 289.17 1030.23 289.17C1029.17 289.17 1028.31 288.738 1028.31 288.208C1028.31 287.68 1027.01 287.246 1025.42 287.246C1023.84 287.246 1022.54 286.813 1022.54 286.285C1022.54 285.755 1021.24 285.323 1019.65 285.323C1018.07 285.323 1016.77 284.89 1016.77 284.361C1016.77 283.833 1015.04 283.4 1012.92 283.4C1010.81 283.4 1009.08 282.968 1009.08 282.438C1009.08 281.829 1002.35 281.476 990.81 281.476C979.27 281.476 972.541 281.829 972.541 282.438C972.541 282.968 970.81 283.4 968.695 283.4C966.58 283.4 964.848 283.833 964.848 284.361C964.848 284.89 963.551 285.323 961.964 285.323C960.378 285.323 959.08 285.755 959.08 286.285C959.08 286.813 958.215 287.246 957.157 287.246C956.1 287.246 955.235 287.68 955.235 288.208C955.235 288.738 954.368 289.17 953.311 289.17C952.253 289.17 951.388 289.603 951.388 290.131C951.388 290.661 950.524 291.093 949.466 291.093C948.409 291.093 947.542 291.526 947.542 292.055C947.542 292.583 946.889 293.016 946.088 293.016C944.454 293.016 928.313 308.765 928.313 310.356C928.313 311.397 924.019 316.099 923.069 316.099C922.78 316.099 922.545 310.905 922.545 304.558C922.545 297.505 922.17 293.016 921.582 293.016C921.055 293.016 920.622 292.151 920.622 291.093C920.622 290.035 920.19 289.17 919.66 289.17C919.13 289.17 918.698 288.491 918.698 287.659C918.698 285.388 916.261 283.4 913.48 283.4C912.119 283.4 911.007 282.968 911.007 282.438C911.007 281.85 906.52 281.476 899.469 281.476C892.418 281.476 887.932 281.85 887.932 282.438ZM1347.51 282.438C1347.51 282.968 1345.35 283.4 1342.71 283.4C1340.06 283.4 1337.9 283.833 1337.9 284.361C1337.9 284.89 1336.17 285.323 1334.05 285.323C1331.94 285.323 1330.21 285.755 1330.21 286.285C1330.21 286.813 1329.34 287.246 1328.28 287.246C1327.23 287.246 1326.36 287.68 1326.36 288.208C1326.36 288.738 1325.06 289.17 1323.48 289.17C1321.89 289.17 1320.59 289.603 1320.59 290.131C1320.59 290.661 1319.73 291.093 1318.67 291.093C1317.61 291.093 1316.75 291.526 1316.75 292.055C1316.75 292.583 1315.88 293.016 1314.82 293.016C1313.77 293.016 1312.9 293.45 1312.9 293.978C1312.9 294.508 1312.03 294.941 1310.98 294.941C1309.92 294.941 1309.05 295.373 1309.05 295.901C1309.05 296.431 1308.29 296.863 1307.34 296.863C1306.4 296.863 1305.01 297.728 1304.25 298.786C1303.48 299.846 1302.3 300.711 1301.62 300.711C1299.87 300.711 1276.36 324.422 1276.36 326.186C1276.36 326.985 1275.93 327.639 1275.4 327.639C1274.87 327.639 1274.44 328.408 1274.44 329.348C1274.44 330.29 1273.58 331.685 1272.52 332.447C1271.46 333.209 1270.6 334.604 1270.6 335.543C1270.6 336.485 1270.16 337.255 1269.64 337.255C1269.11 337.255 1268.67 338.121 1268.67 339.179C1268.67 340.237 1268.24 341.102 1267.71 341.102C1267.18 341.102 1266.75 342.399 1266.75 343.987C1266.75 345.573 1266.32 346.872 1265.79 346.872C1265.26 346.872 1264.83 348.17 1264.83 349.757C1264.83 351.345 1264.39 352.642 1263.87 352.642C1263.34 352.642 1262.9 354.374 1262.9 356.49C1262.9 358.605 1262.47 360.335 1261.94 360.335C1261.41 360.335 1260.98 362.9 1260.98 366.106C1260.98 369.311 1260.55 371.876 1260.02 371.876C1259.41 371.876 1259.06 378.288 1259.06 389.186C1259.06 400.086 1259.41 406.497 1260.02 406.497C1260.55 406.497 1260.98 409.062 1260.98 412.267C1260.98 415.474 1261.41 418.037 1261.94 418.037C1262.47 418.037 1262.9 419.769 1262.9 421.885C1262.9 424 1263.34 425.732 1263.87 425.732C1264.39 425.732 1264.83 427.462 1264.83 429.578C1264.83 431.695 1265.26 433.425 1265.79 433.425C1266.32 433.425 1266.75 434.29 1266.75 435.35C1266.75 436.408 1267.18 437.273 1267.71 437.273C1268.24 437.273 1268.67 438.474 1268.67 439.944C1268.67 441.515 1269.47 443.189 1270.6 444.005C1271.65 444.767 1272.52 446.16 1272.52 447.102C1272.52 448.042 1272.95 448.813 1273.48 448.813C1274.01 448.813 1274.44 449.582 1274.44 450.524C1274.44 451.466 1275.31 452.859 1276.36 453.621C1277.42 454.385 1278.29 455.566 1278.29 456.249C1278.29 457.869 1298.08 477.664 1299.7 477.664C1300.38 477.664 1301.56 478.529 1302.32 479.587C1303.09 480.644 1304.48 481.511 1305.42 481.511C1306.36 481.511 1307.13 481.944 1307.13 482.472C1307.13 483.002 1307.9 483.434 1308.84 483.434C1309.78 483.434 1311.18 484.299 1311.94 485.357C1312.75 486.486 1314.43 487.281 1316 487.281C1317.47 487.281 1318.67 487.714 1318.67 488.242C1318.67 488.772 1319.53 489.204 1320.59 489.204C1321.65 489.204 1322.51 489.637 1322.51 490.167C1322.51 490.694 1323.81 491.127 1325.4 491.127C1326.99 491.127 1328.28 491.559 1328.28 492.089C1328.28 492.619 1330.01 493.052 1332.13 493.052C1334.24 493.052 1335.98 493.484 1335.98 494.012C1335.98 494.542 1338.14 494.974 1340.78 494.974C1343.43 494.974 1345.59 495.407 1345.59 495.937C1345.59 496.551 1353.92 496.897 1368.66 496.897C1383.41 496.897 1391.74 496.551 1391.74 495.937C1391.74 495.407 1393.9 494.974 1396.55 494.974C1399.19 494.974 1401.36 494.542 1401.36 494.012C1401.36 493.484 1402.65 493.052 1404.24 493.052C1405.83 493.052 1407.12 492.619 1407.12 492.089C1407.12 491.559 1408.42 491.127 1410.01 491.127C1411.6 491.127 1412.89 490.694 1412.89 490.167C1412.89 489.637 1414.19 489.204 1415.78 489.204C1417.36 489.204 1418.66 488.772 1418.66 488.242C1418.66 487.714 1419.53 487.281 1420.59 487.281C1421.64 487.281 1422.51 486.847 1422.51 486.319C1422.51 485.789 1423.37 485.357 1424.43 485.357C1425.49 485.357 1426.35 484.924 1426.35 484.396C1426.35 483.867 1427.12 483.434 1428.06 483.434C1429 483.434 1430.4 482.569 1431.16 481.511C1431.92 480.453 1433.22 479.587 1434.05 479.587C1434.87 479.587 1436.17 478.722 1436.93 477.664C1437.69 476.606 1438.87 475.741 1439.56 475.741C1441.18 475.741 1459.04 457.871 1459.04 456.251C1459.04 455.566 1459.91 454.385 1460.97 453.621C1462.02 452.859 1462.89 451.559 1462.89 450.736C1462.89 449.912 1463.75 448.614 1464.81 447.851C1465.87 447.089 1466.74 445.696 1466.74 444.754C1466.74 443.812 1467.17 443.043 1467.7 443.043C1468.23 443.043 1468.66 442.178 1468.66 441.12C1468.66 440.06 1469.09 439.195 1469.62 439.195C1470.15 439.195 1470.58 437.898 1470.58 436.31C1470.58 434.724 1471.01 433.425 1471.54 433.425C1472.07 433.425 1472.5 432.56 1472.5 431.502C1472.5 430.444 1472.94 429.578 1473.46 429.578C1473.99 429.578 1474.43 427.848 1474.43 425.732C1474.43 423.617 1474.86 421.885 1475.39 421.885C1475.92 421.885 1476.35 420.155 1476.35 418.037C1476.35 415.922 1476.78 414.192 1477.31 414.192C1477.88 414.192 1478.27 410.664 1478.27 405.536C1478.27 400.407 1478.66 396.881 1479.23 396.881C1479.8 396.881 1480.2 393.676 1480.2 389.186C1480.2 384.699 1479.8 381.493 1479.23 381.493C1478.66 381.493 1478.27 377.966 1478.27 372.838C1478.27 367.71 1477.88 364.183 1477.31 364.183C1476.78 364.183 1476.35 362.019 1476.35 359.375C1476.35 356.73 1475.92 354.565 1475.39 354.565C1474.86 354.565 1474.43 353.268 1474.43 351.68C1474.43 350.094 1473.99 348.795 1473.46 348.795C1472.94 348.795 1472.5 347.498 1472.5 345.91C1472.5 344.324 1472.07 343.025 1471.54 343.025C1471.01 343.025 1470.58 342.16 1470.58 341.102C1470.58 340.044 1470.15 339.179 1469.62 339.179C1469.09 339.179 1468.66 338.312 1468.66 337.255C1468.66 336.197 1468.23 335.332 1467.7 335.332C1467.17 335.332 1466.74 334.467 1466.74 333.409C1466.74 332.351 1466.3 331.484 1465.77 331.484C1465.25 331.484 1464.81 330.715 1464.81 329.773C1464.81 328.833 1463.95 327.439 1462.89 326.677C1461.83 325.915 1460.97 324.694 1460.97 323.964C1460.97 323.235 1459.67 321.427 1458.08 319.944C1456.5 318.463 1455.2 316.761 1455.2 316.168C1455.2 314.769 1446.93 306.481 1445.53 306.481C1444.95 306.481 1442.81 304.749 1440.78 302.633C1438.74 300.518 1436.4 298.786 1435.56 298.786C1434.73 298.786 1434.05 298.354 1434.05 297.826C1434.05 297.296 1433.28 296.863 1432.33 296.863C1431.39 296.863 1430 295.998 1429.24 294.941C1428.48 293.883 1427.08 293.016 1426.14 293.016C1425.2 293.016 1424.43 292.583 1424.43 292.055C1424.43 291.526 1423.13 291.093 1421.55 291.093C1419.96 291.093 1418.66 290.661 1418.66 290.131C1418.66 289.603 1417.8 289.17 1416.74 289.17C1415.68 289.17 1414.82 288.738 1414.82 288.208C1414.82 287.68 1413.52 287.246 1411.93 287.246C1410.35 287.246 1409.05 286.813 1409.05 286.285C1409.05 285.755 1407.32 285.323 1405.2 285.323C1403.09 285.323 1401.36 284.89 1401.36 284.361C1401.36 283.833 1399.19 283.4 1396.55 283.4C1393.9 283.4 1391.74 282.968 1391.74 282.438C1391.74 281.824 1383.73 281.476 1369.63 281.476C1355.52 281.476 1347.51 281.824 1347.51 282.438ZM1974.39 282.438C1974.39 282.968 1972.67 283.4 1970.55 283.4C1968.44 283.4 1966.7 283.833 1966.7 284.361C1966.7 284.89 1965.4 285.323 1963.81 285.323C1962.22 285.323 1960.93 285.755 1960.93 286.285C1960.93 286.813 1959.64 287.246 1958.05 287.246C1956.46 287.246 1955.17 287.68 1955.17 288.208C1955.17 288.738 1954.3 289.17 1953.24 289.17C1952.19 289.17 1951.31 289.603 1951.31 290.131C1951.31 290.661 1950.45 291.093 1949.4 291.093C1948.33 291.093 1947.47 291.526 1947.47 292.055C1947.47 292.583 1946.61 293.016 1945.54 293.016C1944.5 293.016 1943.62 293.45 1943.62 293.978C1943.62 294.508 1942.85 294.941 1941.91 294.941C1940.98 294.941 1939.57 295.806 1938.82 296.863C1938.06 297.921 1936.84 298.786 1936.11 298.786C1935.38 298.786 1933.57 300.085 1932.09 301.671C1930.61 303.259 1928.9 304.558 1928.31 304.558C1926.9 304.558 1920.56 310.894 1920.56 312.294C1920.56 312.882 1918.82 315.026 1916.7 317.059C1914.59 319.092 1912.86 321.343 1912.86 322.062C1912.86 322.779 1911.98 323.99 1910.94 324.754C1909.87 325.516 1909.01 326.909 1909.01 327.85C1909.01 328.79 1908.58 329.562 1908.05 329.562C1907.53 329.562 1907.08 330.427 1907.08 331.484C1907.08 332.542 1906.65 333.409 1906.13 333.409C1905.6 333.409 1905.17 334.274 1905.17 335.332C1905.17 336.39 1904.74 337.255 1904.2 337.255C1903.67 337.255 1903.24 338.121 1903.24 339.179C1903.24 340.237 1902.81 341.102 1902.29 341.102C1901.75 341.102 1901.31 342.399 1901.31 343.987C1901.31 345.573 1900.88 346.872 1900.36 346.872C1899.84 346.872 1899.39 348.17 1899.39 349.757C1899.39 351.345 1898.96 352.642 1898.43 352.642C1897.91 352.642 1897.48 354.374 1897.48 356.49C1897.48 358.605 1897.05 360.335 1896.5 360.335C1895.94 360.335 1895.55 363.863 1895.55 368.991C1895.55 374.121 1895.16 377.646 1894.6 377.646C1894.03 377.646 1893.62 380.851 1893.62 385.341C1893.62 389.829 1894.03 393.034 1894.6 393.034C1895.16 393.034 1895.55 396.881 1895.55 402.651C1895.55 408.422 1895.94 412.267 1896.5 412.267C1897.05 412.267 1897.48 414.431 1897.48 417.077C1897.48 419.72 1897.91 421.885 1898.43 421.885C1898.96 421.885 1899.39 423.617 1899.39 425.732C1899.39 427.848 1899.84 429.578 1900.36 429.578C1900.88 429.578 1901.31 430.877 1901.31 432.463C1901.31 434.05 1901.75 435.35 1902.29 435.35C1902.81 435.35 1903.24 436.215 1903.24 437.273C1903.24 438.33 1903.67 439.195 1904.2 439.195C1904.74 439.195 1905.17 440.495 1905.17 442.08C1905.17 443.668 1905.6 444.965 1906.13 444.965C1906.65 444.965 1907.08 445.832 1907.08 446.89C1907.08 447.948 1907.53 448.813 1908.05 448.813C1908.58 448.813 1909.01 449.582 1909.01 450.524C1909.01 451.466 1909.87 452.859 1910.94 453.621C1911.98 454.385 1912.86 455.682 1912.86 456.506C1912.86 457.33 1913.72 458.629 1914.77 459.391C1915.84 460.155 1916.7 461.338 1916.7 462.023C1916.7 463.544 1930.66 477.664 1932.16 477.664C1932.76 477.664 1934.44 478.961 1935.92 480.549C1937.42 482.137 1939.31 483.434 1940.15 483.434C1941.01 483.434 1941.71 483.867 1941.71 484.396C1941.71 484.924 1942.57 485.357 1943.62 485.357C1944.68 485.357 1945.54 485.789 1945.54 486.319C1945.54 486.847 1946.41 487.281 1947.47 487.281C1948.52 487.281 1949.4 487.714 1949.4 488.242C1949.4 488.772 1950.26 489.204 1951.31 489.204C1952.38 489.204 1953.24 489.637 1953.24 490.167C1953.24 490.694 1954.53 491.127 1956.12 491.127C1957.71 491.127 1959 491.559 1959 492.089C1959 492.619 1960.31 493.052 1961.88 493.052C1963.48 493.052 1964.77 493.484 1964.77 494.012C1964.77 494.542 1966.94 494.974 1969.58 494.974C1972.24 494.974 1974.39 495.407 1974.39 495.937C1974.39 496.547 1981.76 496.897 1994.58 496.897C2007.41 496.897 2014.78 496.547 2014.78 495.937C2014.78 495.407 2016.93 494.974 2019.57 494.974C2022.23 494.974 2024.38 494.542 2024.38 494.012C2024.38 493.484 2025.69 493.052 2027.27 493.052C2028.86 493.052 2030.15 492.619 2030.15 492.089C2030.15 491.559 2031.46 491.127 2033.03 491.127C2034.62 491.127 2035.93 490.694 2035.93 490.167C2035.93 489.637 2036.79 489.204 2037.84 489.204C2038.91 489.204 2039.77 488.772 2039.77 488.242C2039.77 487.714 2040.63 487.281 2041.7 487.281C2042.75 487.281 2043.62 486.847 2043.62 486.319C2043.62 485.789 2044.39 485.357 2045.33 485.357C2046.26 485.357 2047.67 484.492 2048.42 483.434C2049.18 482.376 2050.38 481.511 2051.07 481.511C2052.76 481.511 2071.18 462.907 2071.96 460.4C2072.3 459.316 2072.99 458.43 2073.48 458.43C2073.98 458.43 2074.38 457.659 2074.38 456.719C2074.38 455.778 2075.24 454.385 2076.31 453.621C2077.37 452.859 2078.23 451.466 2078.23 450.524C2078.23 449.582 2078.66 448.813 2079.19 448.813C2079.71 448.813 2080.14 447.514 2080.14 445.928C2080.14 444.34 2080.59 443.043 2081.12 443.043C2081.64 443.043 2082.07 441.743 2082.07 440.158C2082.07 438.57 2082.5 437.273 2083.04 437.273C2083.57 437.273 2084 435.108 2084 432.463V427.655H2069.98C2054.78 427.655 2053.23 428.138 2053.23 432.877C2053.23 434.236 2052.8 435.35 2052.27 435.35C2051.75 435.35 2051.3 436.647 2051.3 438.235C2051.3 439.821 2050.87 441.12 2050.34 441.12C2049.82 441.12 2049.39 441.889 2049.39 442.829C2049.39 443.771 2048.51 445.166 2047.46 445.928C2046.4 446.69 2045.53 447.877 2045.53 448.564C2045.53 450.195 2035.39 460.353 2033.76 460.353C2033.07 460.353 2031.87 461.218 2031.12 462.276C2030.35 463.334 2028.97 464.201 2028.01 464.201C2027.08 464.201 2026.31 464.633 2026.31 465.161C2026.31 465.691 2025.02 466.123 2023.43 466.123C2021.84 466.123 2020.55 466.556 2020.55 467.086C2020.55 467.614 2019.24 468.046 2017.66 468.046C2016.07 468.046 2014.78 468.479 2014.78 469.009C2014.78 469.536 2012.61 469.971 2009.97 469.971C2007.31 469.971 2005.16 470.403 2005.16 470.931C2005.16 471.508 2001.3 471.894 1995.54 471.894C1989.77 471.894 1985.94 471.508 1985.94 470.931C1985.94 470.403 1983.77 469.971 1981.13 469.971C1978.47 469.971 1976.32 469.536 1976.32 469.009C1976.32 468.479 1975.01 468.046 1973.43 468.046C1971.84 468.046 1970.55 467.614 1970.55 467.086C1970.55 466.556 1969.67 466.123 1968.62 466.123C1967.56 466.123 1966.7 465.691 1966.7 465.161C1966.7 464.633 1965.83 464.201 1964.77 464.201C1963.72 464.201 1962.86 463.766 1962.86 463.238C1962.86 462.709 1962.17 462.276 1961.34 462.276C1960.5 462.276 1958.16 460.546 1956.12 458.43C1954.1 456.313 1951.93 454.583 1951.33 454.583C1949.89 454.583 1947.47 452.157 1947.47 450.73C1947.47 450.122 1945.73 447.961 1943.62 445.928C1941.5 443.895 1939.78 441.549 1939.78 440.714C1939.78 439.879 1939.35 439.195 1938.82 439.195C1938.28 439.195 1937.85 438.33 1937.85 437.273C1937.85 436.215 1937.42 435.35 1936.9 435.35C1936.37 435.35 1935.92 434.483 1935.92 433.425C1935.92 432.367 1935.49 431.502 1934.97 431.502C1934.44 431.502 1934.01 430.637 1934.01 429.578C1934.01 428.52 1933.58 427.655 1933.04 427.655C1932.52 427.655 1932.09 426.357 1932.09 424.77C1932.09 423.184 1931.66 421.885 1931.13 421.885C1930.59 421.885 1930.16 420.155 1930.16 418.037C1930.16 415.922 1929.73 414.192 1929.2 414.192C1928.68 414.192 1928.23 412.027 1928.23 409.382C1928.23 406.738 1927.8 404.574 1927.28 404.574C1926.71 404.574 1926.32 401.047 1926.32 395.919V387.264H2005.7C2073.24 387.264 2085.31 387.058 2086.47 385.889C2088.08 384.274 2088.45 369.953 2086.88 369.953C2086.32 369.953 2085.93 366.426 2085.93 361.298C2085.93 356.17 2085.53 352.642 2084.95 352.642C2084.43 352.642 2084 350.911 2084 348.795C2084 346.679 2083.57 344.949 2083.04 344.949C2082.5 344.949 2082.07 343.65 2082.07 342.064C2082.07 340.477 2081.64 339.179 2081.12 339.179C2080.59 339.179 2080.14 337.88 2080.14 336.294C2080.14 334.707 2079.71 333.409 2079.19 333.409C2078.66 333.409 2078.23 332.542 2078.23 331.484C2078.23 330.427 2077.8 329.562 2077.26 329.562C2076.74 329.562 2076.31 328.697 2076.31 327.639C2076.31 326.581 2075.88 325.714 2075.35 325.714C2074.81 325.714 2074.38 324.945 2074.38 324.003C2074.38 323.063 2073.52 321.668 2072.47 320.906C2071.4 320.144 2070.54 318.946 2070.54 318.246C2070.54 317.546 2069.46 315.891 2068.13 314.567C2066.82 313.245 2065.73 311.779 2065.73 311.309C2065.73 310.025 2056.41 300.711 2055.12 300.711C2054.5 300.711 2052.8 299.411 2051.3 297.826C2049.82 296.238 2047.93 294.941 2047.07 294.941C2046.23 294.941 2045.53 294.508 2045.53 293.978C2045.53 293.45 2044.67 293.016 2043.62 293.016C2042.56 293.016 2041.7 292.583 2041.7 292.055C2041.7 291.526 2040.84 291.093 2039.77 291.093C2038.72 291.093 2037.84 290.661 2037.84 290.131C2037.84 289.603 2036.98 289.17 2035.93 289.17C2034.87 289.17 2034 288.738 2034 288.208C2034 287.68 2032.71 287.246 2031.12 287.246C2029.53 287.246 2028.24 286.813 2028.24 286.285C2028.24 285.755 2026.93 285.323 2025.36 285.323C2023.77 285.323 2022.46 284.89 2022.46 284.361C2022.46 283.833 2020.73 283.4 2018.62 283.4C2016.5 283.4 2014.78 282.968 2014.78 282.438C2014.78 281.827 2007.41 281.476 1994.58 281.476C1981.76 281.476 1974.39 281.827 1974.39 282.438ZM2580.11 282.438C2580.11 282.968 2577.96 283.4 2575.3 283.4C2572.66 283.4 2570.51 283.833 2570.51 284.361C2570.51 284.89 2569.2 285.323 2567.61 285.323C2566.03 285.323 2564.72 285.755 2564.72 286.285C2564.72 286.813 2563.43 287.246 2561.84 287.246C2560.27 287.246 2558.96 287.68 2558.96 288.208C2558.96 288.738 2557.67 289.17 2556.08 289.17C2554.49 289.17 2553.19 289.603 2553.19 290.131C2553.19 290.661 2552.33 291.093 2551.27 291.093C2550.22 291.093 2549.36 291.526 2549.36 292.055C2549.36 292.583 2548.48 293.016 2547.43 293.016C2546.36 293.016 2545.5 293.45 2545.5 293.978C2545.5 294.508 2544.73 294.941 2543.8 294.941C2542.84 294.941 2541.46 295.806 2540.69 296.863C2539.92 297.921 2538.63 298.786 2537.81 298.786C2536.98 298.786 2535.69 299.653 2534.93 300.711C2534.16 301.769 2532.98 302.633 2532.31 302.633C2530.68 302.633 2510.89 322.429 2510.89 324.05C2510.89 324.731 2510.03 325.915 2508.96 326.677C2507.92 327.439 2507.04 328.833 2507.04 329.773C2507.04 330.715 2506.61 331.484 2506.08 331.484C2505.56 331.484 2505.13 332.351 2505.13 333.409C2505.13 334.467 2504.7 335.332 2504.15 335.332C2503.63 335.332 2503.2 336.197 2503.2 337.255C2503.2 338.312 2502.77 339.179 2502.24 339.179C2501.7 339.179 2501.27 340.044 2501.27 341.102C2501.27 342.16 2500.84 343.025 2500.32 343.025C2499.79 343.025 2499.34 343.892 2499.34 344.949C2499.34 346.007 2498.91 346.872 2498.39 346.872C2497.86 346.872 2497.43 348.17 2497.43 349.757C2497.43 351.345 2497 352.642 2496.46 352.642C2495.94 352.642 2495.51 354.374 2495.51 356.49C2495.51 358.605 2495.08 360.335 2494.55 360.335C2494.01 360.335 2493.58 362.9 2493.58 366.106C2493.58 369.311 2493.15 371.876 2492.62 371.876C2492.02 371.876 2491.67 378.288 2491.67 389.186C2491.67 400.086 2492.02 406.497 2492.62 406.497C2493.15 406.497 2493.58 409.062 2493.58 412.267C2493.58 415.474 2494.01 418.037 2494.55 418.037C2495.08 418.037 2495.51 419.769 2495.51 421.885C2495.51 424 2495.94 425.732 2496.46 425.732C2497 425.732 2497.43 427.03 2497.43 428.617C2497.43 430.203 2497.86 431.502 2498.39 431.502C2498.91 431.502 2499.34 432.8 2499.34 434.387C2499.34 435.973 2499.79 437.273 2500.32 437.273C2500.84 437.273 2501.27 438.137 2501.27 439.195C2501.27 440.253 2501.7 441.12 2502.24 441.12C2502.77 441.12 2503.2 441.985 2503.2 443.043C2503.2 444.1 2503.63 444.965 2504.15 444.965C2504.7 444.965 2505.13 445.832 2505.13 446.89C2505.13 447.948 2505.56 448.813 2506.08 448.813C2506.61 448.813 2507.04 449.504 2507.04 450.35C2507.04 451.196 2508.35 453.1 2509.92 454.583C2511.51 456.064 2512.82 457.76 2512.82 458.346C2512.82 459.848 2530.79 477.664 2532.31 477.664C2532.98 477.664 2534.16 478.529 2534.93 479.587C2535.69 480.644 2537.08 481.511 2538.01 481.511C2538.97 481.511 2539.74 481.944 2539.74 482.472C2539.74 483.002 2540.6 483.434 2541.66 483.434C2542.71 483.434 2543.57 483.867 2543.57 484.396C2543.57 484.924 2544.45 485.357 2545.5 485.357C2546.57 485.357 2547.43 485.789 2547.43 486.319C2547.43 486.847 2548.29 487.281 2549.36 487.281C2550.41 487.281 2551.27 487.714 2551.27 488.242C2551.27 488.772 2552.13 489.204 2553.19 489.204C2554.24 489.204 2555.12 489.637 2555.12 490.167C2555.12 490.694 2556.41 491.127 2558 491.127C2559.6 491.127 2560.89 491.559 2560.89 492.089C2560.89 492.619 2562.61 493.052 2564.72 493.052C2566.84 493.052 2568.58 493.484 2568.58 494.012C2568.58 494.542 2570.73 494.974 2573.39 494.974C2576.03 494.974 2578.2 495.407 2578.2 495.937C2578.2 496.551 2586.53 496.897 2601.26 496.897C2616.01 496.897 2624.34 496.551 2624.34 495.937C2624.34 495.407 2626.51 494.974 2629.15 494.974C2631.79 494.974 2633.96 494.542 2633.96 494.012C2633.96 493.484 2635.68 493.052 2637.8 493.052C2639.91 493.052 2641.65 492.619 2641.65 492.089C2641.65 491.559 2642.95 491.127 2644.54 491.127C2646.13 491.127 2647.42 490.694 2647.42 490.167C2647.42 489.637 2648.28 489.204 2649.35 489.204C2650.39 489.204 2651.26 488.772 2651.26 488.242C2651.26 487.714 2652.14 487.281 2653.18 487.281C2654.25 487.281 2655.11 486.847 2655.11 486.319C2655.11 485.789 2655.97 485.357 2657.04 485.357C2658.09 485.357 2658.95 484.924 2658.95 484.396C2658.95 483.867 2659.83 483.434 2660.88 483.434C2661.94 483.434 2662.8 483.002 2662.8 482.472C2662.8 481.944 2663.5 481.511 2664.34 481.511C2665.18 481.511 2667.09 480.212 2668.57 478.626C2670.05 477.038 2671.75 475.741 2672.35 475.741C2673.64 475.741 2692.6 456.841 2692.6 455.555C2692.6 455.068 2693.69 453.589 2695.02 452.265C2696.33 450.943 2697.41 449.193 2697.41 448.375C2697.41 447.558 2697.84 446.89 2698.37 446.89C2698.91 446.89 2699.34 446.023 2699.34 444.965C2699.34 443.908 2699.77 443.043 2700.3 443.043C2700.82 443.043 2701.25 442.178 2701.25 441.12C2701.25 440.06 2701.7 439.195 2702.22 439.195C2702.75 439.195 2703.18 438.33 2703.18 437.273C2703.18 436.215 2703.61 435.35 2704.15 435.35C2704.68 435.35 2705.11 434.05 2705.11 432.463C2705.11 430.877 2705.54 429.578 2706.06 429.578C2706.6 429.578 2707.03 428.28 2707.03 426.693C2707.03 425.107 2707.46 423.807 2707.99 423.807C2708.51 423.807 2708.94 421.645 2708.94 419C2708.94 416.356 2709.39 414.192 2709.92 414.192C2710.5 414.192 2710.87 410.344 2710.87 404.574C2710.87 398.804 2711.26 394.957 2711.85 394.957C2712.37 394.957 2712.8 392.392 2712.8 389.186C2712.8 385.981 2712.37 383.416 2711.85 383.416C2711.26 383.416 2710.87 379.571 2710.87 373.8C2710.87 368.03 2710.5 364.183 2709.92 364.183C2709.39 364.183 2708.94 362.019 2708.94 359.375C2708.94 356.73 2708.51 354.565 2707.99 354.565C2707.46 354.565 2707.03 353.268 2707.03 351.68C2707.03 350.094 2706.6 348.795 2706.06 348.795C2705.54 348.795 2705.11 347.498 2705.11 345.91C2705.11 344.324 2704.68 343.025 2704.15 343.025C2703.61 343.025 2703.18 341.727 2703.18 340.14C2703.18 338.554 2702.75 337.255 2702.22 337.255C2701.7 337.255 2701.25 336.485 2701.25 335.543C2701.25 334.604 2700.39 333.209 2699.34 332.447C2698.27 331.685 2697.41 330.29 2697.41 329.348C2697.41 328.408 2696.98 327.639 2696.46 327.639C2695.92 327.639 2695.49 326.946 2695.49 326.1C2695.49 325.256 2694.19 323.35 2692.6 321.869C2691.01 320.386 2689.72 318.69 2689.72 318.098C2689.72 316.698 2677.59 304.558 2676.19 304.558C2675.59 304.558 2673.9 303.259 2672.41 301.671C2670.93 300.085 2669.04 298.786 2668.18 298.786C2667.33 298.786 2666.64 298.354 2666.64 297.826C2666.64 297.296 2665.87 296.863 2664.94 296.863C2664 296.863 2662.6 295.998 2661.83 294.941C2661.08 293.883 2659.68 293.016 2658.74 293.016C2657.81 293.016 2657.04 292.583 2657.04 292.055C2657.04 291.526 2655.73 291.093 2654.16 291.093C2652.57 291.093 2651.26 290.661 2651.26 290.131C2651.26 289.603 2650.39 289.17 2649.35 289.17C2648.28 289.17 2647.42 288.738 2647.42 288.208C2647.42 287.68 2646.13 287.246 2644.54 287.246C2642.95 287.246 2641.65 286.813 2641.65 286.285C2641.65 285.755 2639.91 285.323 2637.8 285.323C2635.68 285.323 2633.96 284.89 2633.96 284.361C2633.96 283.833 2631.79 283.4 2629.15 283.4C2626.51 283.4 2624.34 282.968 2624.34 282.438C2624.34 281.824 2616.33 281.476 2602.23 281.476C2588.12 281.476 2580.11 281.824 2580.11 282.438ZM2833.94 282.438C2833.94 282.968 2831.79 283.4 2829.13 283.4C2826.49 283.4 2824.32 283.833 2824.32 284.361C2824.32 284.89 2822.6 285.323 2820.48 285.323C2818.37 285.323 2816.65 285.755 2816.65 286.285C2816.65 286.813 2815.33 287.246 2813.74 287.246C2812.17 287.246 2810.86 287.68 2810.86 288.208C2810.86 288.738 2810 289.17 2808.95 289.17C2807.89 289.17 2807.02 289.603 2807.02 290.131C2807.02 290.661 2806.16 291.093 2805.1 291.093C2804.05 291.093 2803.17 291.526 2803.17 292.055C2803.17 292.583 2802.31 293.016 2801.26 293.016C2800.19 293.016 2799.33 293.45 2799.33 293.978C2799.33 294.508 2798.56 294.941 2797.63 294.941C2796.67 294.941 2795.29 295.806 2794.52 296.863C2793.75 297.921 2792.46 298.786 2791.64 298.786C2790.81 298.786 2789.52 299.653 2788.76 300.711C2787.99 301.769 2786.81 302.633 2786.12 302.633C2784.6 302.633 2768.56 318.525 2768.56 320.026C2768.56 320.614 2767.27 322.309 2765.68 323.791C2764.09 325.272 2762.79 327.178 2762.79 328.025C2762.79 328.871 2762.36 329.562 2761.84 329.562C2761.3 329.562 2760.87 330.427 2760.87 331.484C2760.87 332.542 2760.44 333.409 2759.91 333.409C2759.39 333.409 2758.96 334.274 2758.96 335.332C2758.96 336.39 2758.51 337.255 2757.98 337.255C2757.46 337.255 2757.03 338.121 2757.03 339.179C2757.03 340.237 2756.6 341.102 2756.06 341.102C2755.53 341.102 2755.1 341.967 2755.1 343.025C2755.1 344.083 2754.67 344.949 2754.15 344.949C2753.6 344.949 2753.17 346.247 2753.17 347.835C2753.17 349.42 2752.74 350.72 2752.22 350.72C2751.69 350.72 2751.26 352.45 2751.26 354.565C2751.26 356.681 2750.82 358.413 2750.29 358.413C2749.77 358.413 2749.34 360.577 2749.34 363.22C2749.34 365.866 2748.91 368.03 2748.36 368.03C2747.76 368.03 2747.41 375.723 2747.41 389.186C2747.41 402.651 2747.76 410.344 2748.36 410.344C2748.91 410.344 2749.34 412.909 2749.34 416.115C2749.34 419.32 2749.77 421.885 2750.29 421.885C2750.82 421.885 2751.26 423.617 2751.26 425.732C2751.26 427.848 2751.69 429.578 2752.22 429.578C2752.74 429.578 2753.17 430.877 2753.17 432.463C2753.17 434.05 2753.6 435.35 2754.15 435.35C2754.67 435.35 2755.1 436.215 2755.1 437.273C2755.1 438.33 2755.53 439.195 2756.06 439.195C2756.6 439.195 2757.03 440.06 2757.03 441.12C2757.03 442.178 2757.46 443.043 2757.98 443.043C2758.51 443.043 2758.96 443.908 2758.96 444.965C2758.96 446.023 2759.39 446.89 2759.91 446.89C2760.44 446.89 2760.87 447.755 2760.87 448.813C2760.87 449.871 2761.3 450.736 2761.84 450.736C2762.36 450.736 2762.79 451.428 2762.79 452.275C2762.79 453.119 2764.09 455.025 2765.68 456.506C2767.27 457.989 2768.56 459.683 2768.56 460.271C2768.56 461.774 2784.6 477.664 2786.12 477.664C2786.81 477.664 2787.99 478.529 2788.76 479.587C2789.52 480.644 2790.81 481.511 2791.64 481.511C2792.46 481.511 2793.75 482.376 2794.52 483.434C2795.29 484.492 2796.67 485.357 2797.63 485.357C2798.56 485.357 2799.33 485.789 2799.33 486.319C2799.33 486.847 2800.62 487.281 2802.21 487.281C2803.8 487.281 2805.1 487.714 2805.1 488.242C2805.1 488.772 2805.96 489.204 2807.02 489.204C2808.07 489.204 2808.95 489.637 2808.95 490.167C2808.95 490.694 2810.24 491.127 2811.83 491.127C2813.41 491.127 2814.72 491.559 2814.72 492.089C2814.72 492.619 2816.44 493.052 2818.55 493.052C2820.67 493.052 2822.41 493.484 2822.41 494.012C2822.41 494.542 2824.56 494.974 2827.22 494.974C2829.86 494.974 2832.01 495.407 2832.01 495.937C2832.01 496.551 2840.36 496.897 2855.09 496.897C2869.84 496.897 2878.17 496.551 2878.17 495.937C2878.17 495.407 2880.34 494.974 2882.98 494.974C2885.62 494.974 2887.79 494.542 2887.79 494.012C2887.79 493.484 2889.08 493.052 2890.67 493.052C2892.26 493.052 2893.56 492.619 2893.56 492.089C2893.56 491.559 2894.85 491.127 2896.44 491.127C2898.03 491.127 2899.32 490.694 2899.32 490.167C2899.32 489.637 2900.61 489.204 2902.2 489.204C2903.79 489.204 2905.09 488.772 2905.09 488.242C2905.09 487.714 2905.85 487.281 2906.81 487.281C2907.74 487.281 2909.13 486.415 2909.9 485.357C2910.66 484.299 2911.96 483.434 2912.78 483.434C2913.6 483.434 2914.91 482.569 2915.66 481.511C2916.43 480.453 2917.61 479.587 2918.3 479.587C2919.82 479.587 2935.86 463.697 2935.86 462.196C2935.86 461.606 2937.15 459.911 2938.74 458.43C2940.33 456.948 2941.62 455.042 2941.62 454.197C2941.62 453.351 2942.05 452.66 2942.6 452.66C2943.12 452.66 2943.55 451.793 2943.55 450.736C2943.55 449.678 2943.98 448.813 2944.51 448.813C2945.05 448.813 2945.48 447.948 2945.48 446.89C2945.48 445.832 2945.91 444.965 2946.43 444.965C2946.96 444.965 2947.39 443.668 2947.39 442.08C2947.39 440.495 2947.84 439.195 2948.36 439.195C2948.89 439.195 2949.32 437.031 2949.32 434.387C2949.32 431.742 2948.89 429.578 2948.36 429.578C2947.84 429.578 2947.39 428.909 2947.39 428.093C2947.39 425.309 2942.91 421.885 2939.26 421.885C2937.39 421.885 2935.86 421.452 2935.86 420.922C2935.86 420.353 2932.34 419.962 2927.21 419.962C2922.08 419.962 2918.54 420.353 2918.54 420.922C2918.54 421.452 2916.82 421.885 2914.71 421.885C2912.59 421.885 2910.85 422.317 2910.85 422.847C2910.85 423.375 2910.2 423.807 2909.37 423.807C2907.44 423.807 2903.18 428.091 2903.18 430.016C2903.18 430.834 2902.73 431.502 2902.2 431.502C2901.68 431.502 2901.25 432.367 2901.25 433.425C2901.25 434.483 2900.82 435.35 2900.28 435.35C2899.75 435.35 2899.32 436.005 2899.32 436.806C2899.32 438.707 2885.38 452.66 2883.47 452.66C2882.68 452.66 2882.01 453.093 2882.01 453.621C2882.01 454.151 2881.15 454.583 2880.1 454.583C2879.03 454.583 2878.17 455.016 2878.17 455.545C2878.17 456.073 2876.45 456.506 2874.33 456.506C2872.22 456.506 2870.48 456.938 2870.48 457.468C2870.48 458.065 2865.03 458.43 2856.06 458.43C2847.08 458.43 2841.63 458.065 2841.63 457.468C2841.63 456.938 2840.34 456.506 2838.75 456.506C2837.16 456.506 2835.87 456.073 2835.87 455.545C2835.87 455.016 2835.01 454.583 2833.94 454.583C2832.89 454.583 2832.01 454.151 2832.01 453.621C2832.01 453.093 2831.15 452.66 2830.1 452.66C2829.04 452.66 2828.18 452.226 2828.18 451.698C2828.18 451.168 2827.52 450.736 2826.72 450.736C2824.96 450.736 2808.95 434.919 2808.95 433.17C2808.95 432.487 2808.07 431.304 2807.02 430.54C2805.96 429.778 2805.1 428.385 2805.1 427.443C2805.1 426.502 2804.67 425.732 2804.14 425.732C2803.62 425.732 2803.17 424.867 2803.17 423.807C2803.17 422.75 2802.74 421.885 2802.21 421.885C2801.69 421.885 2801.26 420.587 2801.26 419C2801.26 417.414 2800.83 416.115 2800.29 416.115C2799.76 416.115 2799.33 414.42 2799.33 412.348C2799.33 410.277 2798.9 408.435 2798.36 408.259C2796.99 407.802 2796.94 370.59 2798.3 370.135C2798.86 369.946 2799.33 368.098 2799.33 366.027C2799.33 363.954 2799.76 362.26 2800.29 362.26C2800.83 362.26 2801.26 360.961 2801.26 359.375C2801.26 357.787 2801.69 356.49 2802.21 356.49C2802.74 356.49 2803.17 355.623 2803.17 354.565C2803.17 353.507 2803.62 352.642 2804.14 352.642C2804.67 352.642 2805.1 351.873 2805.1 350.931C2805.1 349.989 2805.96 348.597 2807.02 347.835C2808.07 347.071 2808.95 345.887 2808.95 345.204C2808.95 343.454 2824.96 327.639 2826.72 327.639C2827.52 327.639 2828.18 327.205 2828.18 326.677C2828.18 326.147 2829.04 325.714 2830.1 325.714C2831.15 325.714 2832.01 325.282 2832.01 324.754C2832.01 324.224 2832.89 323.791 2833.94 323.791C2835.01 323.791 2835.87 323.359 2835.87 322.829C2835.87 322.301 2837.16 321.869 2838.75 321.869C2840.34 321.869 2841.63 321.434 2841.63 320.906C2841.63 320.307 2847.08 319.944 2856.06 319.944C2865.03 319.944 2870.48 320.307 2870.48 320.906C2870.48 321.434 2871.77 321.869 2873.36 321.869C2874.95 321.869 2876.24 322.301 2876.24 322.829C2876.24 323.359 2877.46 323.791 2878.92 323.791C2880.49 323.791 2882.16 324.585 2882.98 325.714C2883.75 326.772 2884.93 327.639 2885.62 327.639C2887.36 327.639 2899.32 339.788 2899.32 341.564C2899.32 342.368 2899.75 343.025 2900.28 343.025C2900.82 343.025 2901.25 343.892 2901.25 344.949C2901.25 346.007 2901.68 346.872 2902.2 346.872C2902.73 346.872 2903.18 347.535 2903.18 348.346C2903.18 350.77 2909.56 356.49 2912.27 356.49C2913.6 356.49 2914.71 356.922 2914.71 357.45C2914.71 358.042 2919.52 358.413 2927.21 358.413C2934.9 358.413 2939.69 358.042 2939.69 357.45C2939.69 356.922 2940.37 356.49 2941.19 356.49C2943.12 356.49 2947.39 352.206 2947.39 350.282C2947.39 349.463 2947.84 348.795 2948.36 348.795C2948.89 348.795 2949.32 346.633 2949.32 343.987C2949.32 341.342 2948.89 339.179 2948.36 339.179C2947.84 339.179 2947.39 337.88 2947.39 336.294C2947.39 334.707 2946.96 333.409 2946.43 333.409C2945.91 333.409 2945.48 332.542 2945.48 331.484C2945.48 330.427 2945.05 329.562 2944.51 329.562C2943.98 329.562 2943.55 328.79 2943.55 327.85C2943.55 326.909 2942.69 325.516 2941.62 324.754C2940.57 323.99 2939.69 322.692 2939.69 321.869C2939.69 321.043 2938.83 319.746 2937.79 318.984C2936.72 318.22 2935.86 317.037 2935.86 316.351C2935.86 314.831 2921.89 300.711 2920.4 300.711C2919.8 300.711 2918.11 299.411 2916.63 297.826C2915.16 296.238 2913.25 294.941 2912.4 294.941C2911.54 294.941 2910.85 294.508 2910.85 293.978C2910.85 293.45 2909.99 293.016 2908.94 293.016C2907.87 293.016 2907.01 292.583 2907.01 292.055C2907.01 291.526 2906.15 291.093 2905.09 291.093C2904.04 291.093 2903.18 290.661 2903.18 290.131C2903.18 289.603 2902.3 289.17 2901.25 289.17C2900.18 289.17 2899.32 288.738 2899.32 288.208C2899.32 287.68 2898.03 287.246 2896.44 287.246C2894.85 287.246 2893.56 286.813 2893.56 286.285C2893.56 285.755 2892.26 285.323 2890.67 285.323C2889.08 285.323 2887.79 284.89 2887.79 284.361C2887.79 283.833 2885.62 283.4 2882.98 283.4C2880.34 283.4 2878.17 282.968 2878.17 282.438C2878.17 281.824 2870.16 281.476 2856.06 281.476C2841.95 281.476 2833.94 281.824 2833.94 282.438ZM2003.23 307.443C2003.23 307.977 2005.8 308.404 2009 308.404C2012.22 308.404 2014.78 308.831 2014.78 309.366C2014.78 309.894 2016.07 310.328 2017.66 310.328C2019.24 310.328 2020.55 310.761 2020.55 311.289C2020.55 311.819 2021.41 312.251 2022.46 312.251C2023.52 312.251 2024.38 312.684 2024.38 313.213C2024.38 313.741 2025.24 314.174 2026.31 314.174C2027.36 314.174 2028.24 314.606 2028.24 315.136C2028.24 315.664 2028.89 316.099 2029.7 316.099C2031.46 316.099 2045.53 329.989 2045.53 331.737C2045.53 332.424 2046.4 333.608 2047.46 334.37C2048.59 335.184 2049.39 336.86 2049.39 338.429C2049.39 339.898 2049.82 341.102 2050.34 341.102C2050.87 341.102 2051.3 341.967 2051.3 343.025C2051.3 344.083 2051.75 344.949 2052.27 344.949C2052.8 344.949 2053.23 346.679 2053.23 348.795C2053.23 350.911 2053.66 352.642 2054.2 352.642C2054.72 352.642 2055.15 355.207 2055.15 358.413V364.183H1991.7H1928.23V360.335C1928.23 358.22 1928.68 356.49 1929.2 356.49C1929.73 356.49 1930.16 355.191 1930.16 353.605C1930.16 352.017 1930.59 350.72 1931.13 350.72C1931.66 350.72 1932.09 349.853 1932.09 348.795C1932.09 347.737 1932.52 346.872 1933.04 346.872C1933.58 346.872 1934.01 346.007 1934.01 344.949C1934.01 343.892 1934.44 343.025 1934.97 343.025C1935.49 343.025 1935.92 342.16 1935.92 341.102C1935.92 340.044 1936.37 339.179 1936.9 339.179C1937.42 339.179 1937.85 338.496 1937.85 337.661C1937.85 336.826 1939.59 334.48 1941.71 332.447C1943.82 330.414 1945.54 328.253 1945.54 327.645C1945.54 326.209 1947.98 323.791 1949.42 323.791C1950.04 323.791 1951.76 322.492 1953.24 320.906C1954.72 319.319 1956.53 318.021 1957.26 318.021C1957.99 318.021 1959.21 317.156 1959.98 316.099C1960.72 315.039 1962.13 314.174 1963.06 314.174C1964 314.174 1964.77 313.741 1964.77 313.213C1964.77 312.684 1966.08 312.251 1967.67 312.251C1969.24 312.251 1970.55 311.819 1970.55 311.289C1970.55 310.761 1971.84 310.328 1973.43 310.328C1975.01 310.328 1976.32 309.894 1976.32 309.366C1976.32 308.836 1978.47 308.404 1981.13 308.404C1983.77 308.404 1985.94 307.971 1985.94 307.443C1985.94 306.872 1989.46 306.481 1994.58 306.481C1999.71 306.481 2003.23 306.872 2003.23 307.443ZM1384.05 320.906C1384.05 321.434 1385.35 321.869 1386.93 321.869C1388.52 321.869 1389.82 322.301 1389.82 322.829C1389.82 323.359 1391.12 323.791 1392.7 323.791C1394.29 323.791 1395.59 324.224 1395.59 324.754C1395.59 325.282 1396.36 325.714 1397.3 325.714C1398.24 325.714 1399.63 326.581 1400.39 327.639C1401.16 328.697 1402.34 329.562 1403.03 329.562C1404.65 329.562 1416.74 341.651 1416.74 343.276C1416.74 343.963 1417.6 345.148 1418.66 345.91C1419.72 346.674 1420.59 348.067 1420.59 349.008C1420.59 349.948 1421.02 350.72 1421.55 350.72C1422.08 350.72 1422.51 351.585 1422.51 352.642C1422.51 353.7 1422.94 354.565 1423.47 354.565C1424 354.565 1424.43 355.865 1424.43 357.45C1424.43 359.038 1424.86 360.335 1425.39 360.335C1425.92 360.335 1426.35 361.635 1426.35 363.22C1426.35 364.808 1426.79 366.106 1427.31 366.106C1427.86 366.106 1428.28 368.991 1428.28 372.838C1428.28 376.686 1428.69 379.571 1429.24 379.571C1429.82 379.571 1430.2 383.416 1430.2 389.186C1430.2 394.957 1429.82 398.804 1429.24 398.804C1428.7 398.804 1428.28 401.369 1428.28 404.574C1428.28 407.779 1427.85 410.344 1427.31 410.344C1426.79 410.344 1426.35 412.076 1426.35 414.192C1426.35 416.307 1425.92 418.037 1425.39 418.037C1424.86 418.037 1424.43 418.904 1424.43 419.962C1424.43 421.02 1424 421.885 1423.47 421.885C1422.94 421.885 1422.51 422.75 1422.51 423.807C1422.51 424.867 1422.08 425.732 1421.55 425.732C1421.02 425.732 1420.59 426.597 1420.59 427.655C1420.59 428.713 1420.15 429.578 1419.62 429.578C1419.09 429.578 1418.66 430.349 1418.66 431.289C1418.66 432.231 1417.8 433.624 1416.74 434.387C1415.68 435.149 1414.82 436.338 1414.82 437.029C1414.82 438.664 1406.59 446.89 1404.96 446.89C1404.27 446.89 1403.08 447.755 1402.32 448.813C1401.56 449.871 1400.16 450.736 1399.22 450.736C1398.28 450.736 1397.51 451.168 1397.51 451.698C1397.51 452.226 1396.64 452.66 1395.59 452.66C1394.53 452.66 1393.66 453.093 1393.66 453.621C1393.66 454.151 1392.8 454.583 1391.74 454.583C1390.68 454.583 1389.82 455.016 1389.82 455.545C1389.82 456.073 1388.52 456.506 1386.93 456.506C1385.35 456.506 1384.05 456.938 1384.05 457.468C1384.05 458.065 1378.6 458.43 1369.63 458.43C1360.65 458.43 1355.2 458.065 1355.2 457.468C1355.2 456.938 1353.91 456.506 1352.32 456.506C1350.74 456.506 1349.44 456.073 1349.44 455.545C1349.44 455.016 1348.14 454.583 1346.55 454.583C1344.97 454.583 1343.67 454.151 1343.67 453.621C1343.67 453.093 1342.8 452.66 1341.74 452.66C1340.69 452.66 1339.82 452.226 1339.82 451.698C1339.82 451.168 1339.17 450.736 1338.37 450.736C1336.47 450.736 1320.59 434.857 1320.59 432.959C1320.59 432.158 1320.16 431.502 1319.63 431.502C1319.1 431.502 1318.67 430.637 1318.67 429.578C1318.67 428.52 1318.24 427.655 1317.71 427.655C1317.18 427.655 1316.75 426.79 1316.75 425.732C1316.75 424.674 1316.31 423.807 1315.79 423.807C1315.26 423.807 1314.82 422.942 1314.82 421.885C1314.82 420.827 1314.39 419.962 1313.86 419.962C1313.33 419.962 1312.9 418.663 1312.9 417.077C1312.9 415.489 1312.47 414.192 1311.94 414.192C1311.41 414.192 1310.98 412.027 1310.98 409.382C1310.98 406.738 1310.54 404.574 1310.02 404.574C1309.42 404.574 1309.05 398.804 1309.05 389.186C1309.05 379.571 1309.42 373.8 1310.02 373.8C1310.54 373.8 1310.98 371.636 1310.98 368.991C1310.98 366.347 1311.41 364.183 1311.94 364.183C1312.47 364.183 1312.9 362.885 1312.9 361.298C1312.9 359.71 1313.33 358.413 1313.86 358.413C1314.39 358.413 1314.82 357.548 1314.82 356.49C1314.82 355.432 1315.26 354.565 1315.79 354.565C1316.31 354.565 1316.75 353.7 1316.75 352.642C1316.75 351.585 1317.18 350.72 1317.71 350.72C1318.24 350.72 1318.67 349.853 1318.67 348.795C1318.67 347.737 1319.1 346.872 1319.63 346.872C1320.16 346.872 1320.59 346.217 1320.59 345.416C1320.59 343.517 1336.47 327.639 1338.37 327.639C1339.17 327.639 1339.82 327.205 1339.82 326.677C1339.82 326.147 1340.69 325.714 1341.74 325.714C1342.8 325.714 1343.67 325.282 1343.67 324.754C1343.67 324.224 1344.53 323.791 1345.59 323.791C1346.65 323.791 1347.51 323.359 1347.51 322.829C1347.51 322.301 1349.24 321.869 1351.36 321.869C1353.48 321.869 1355.2 321.434 1355.2 320.906C1355.2 320.307 1360.65 319.944 1369.63 319.944C1378.6 319.944 1384.05 320.307 1384.05 320.906ZM2255.13 320.906C2255.13 321.434 2256.88 321.869 2258.99 321.869C2261.11 321.869 2262.83 322.301 2262.83 322.829C2262.83 323.359 2263.69 323.791 2264.76 323.791C2265.8 323.791 2266.68 324.224 2266.68 324.754C2266.68 325.282 2267.45 325.714 2268.39 325.714C2269.32 325.714 2270.73 326.581 2271.47 327.639C2272.24 328.697 2273.42 329.562 2274.11 329.562C2275.87 329.562 2289.74 343.641 2289.74 345.414C2289.74 346.217 2290.19 346.872 2290.72 346.872C2291.24 346.872 2291.67 347.737 2291.67 348.795C2291.67 349.853 2292.1 350.72 2292.64 350.72C2293.17 350.72 2293.6 351.585 2293.6 352.642C2293.6 353.7 2294.03 354.565 2294.55 354.565C2295.1 354.565 2295.53 355.865 2295.53 357.45C2295.53 359.038 2295.96 360.335 2296.48 360.335C2297.01 360.335 2297.44 362.5 2297.44 365.145C2297.44 367.789 2297.89 369.953 2298.41 369.953C2299.01 369.953 2299.36 376.685 2299.36 388.226C2299.36 399.766 2299.01 406.497 2298.41 406.497C2297.89 406.497 2297.44 408.229 2297.44 410.344C2297.44 412.46 2297.01 414.192 2296.48 414.192C2295.96 414.192 2295.53 415.489 2295.53 417.077C2295.53 418.663 2295.1 419.962 2294.55 419.962C2294.03 419.962 2293.6 421.259 2293.6 422.847C2293.6 424.433 2293.17 425.732 2292.64 425.732C2292.1 425.732 2291.67 426.502 2291.67 427.443C2291.67 428.385 2290.81 429.778 2289.74 430.54C2288.7 431.304 2287.83 432.487 2287.83 433.17C2287.83 434.919 2271.83 450.736 2270.05 450.736C2269.25 450.736 2268.59 451.168 2268.59 451.698C2268.59 452.226 2267.73 452.66 2266.68 452.66C2265.62 452.66 2264.76 453.093 2264.76 453.621C2264.76 454.151 2263.89 454.583 2262.83 454.583C2261.78 454.583 2260.9 455.016 2260.9 455.545C2260.9 456.073 2259.61 456.506 2258.02 456.506C2256.44 456.506 2255.13 456.938 2255.13 457.468C2255.13 458.064 2250.01 458.43 2241.68 458.43C2233.35 458.43 2228.22 458.064 2228.22 457.468C2228.22 456.938 2226.5 456.506 2224.38 456.506C2222.27 456.506 2220.53 456.073 2220.53 455.545C2220.53 455.016 2219.66 454.583 2218.6 454.583C2217.55 454.583 2216.69 454.151 2216.69 453.621C2216.69 453.093 2215.9 452.66 2214.97 452.66C2214.03 452.66 2212.63 451.793 2211.88 450.736C2211.11 449.678 2209.93 448.813 2209.24 448.813C2207.5 448.813 2193.61 434.734 2193.61 432.961C2193.61 432.158 2193.18 431.502 2192.64 431.502C2192.11 431.502 2191.68 430.637 2191.68 429.578C2191.68 428.52 2191.25 427.655 2190.73 427.655C2190.18 427.655 2189.75 426.79 2189.75 425.732C2189.75 424.674 2189.32 423.807 2188.8 423.807C2188.28 423.807 2187.84 422.942 2187.84 421.885C2187.84 420.827 2187.4 419.962 2186.87 419.962C2186.35 419.962 2185.92 418.663 2185.92 417.077C2185.92 415.489 2185.49 414.192 2184.94 414.192C2184.42 414.192 2183.99 412.027 2183.99 409.382C2183.99 406.738 2183.56 404.574 2183.03 404.574C2182.43 404.574 2182.06 398.804 2182.06 389.186C2182.06 379.571 2182.43 373.8 2183.03 373.8C2183.56 373.8 2183.99 371.636 2183.99 368.991C2183.99 366.347 2184.42 364.183 2184.94 364.183C2185.49 364.183 2185.92 362.885 2185.92 361.298C2185.92 359.71 2186.35 358.413 2186.87 358.413C2187.4 358.413 2187.84 357.548 2187.84 356.49C2187.84 355.432 2188.28 354.565 2188.8 354.565C2189.32 354.565 2189.75 353.7 2189.75 352.642C2189.75 351.585 2190.18 350.72 2190.73 350.72C2191.25 350.72 2191.68 349.853 2191.68 348.795C2191.68 347.737 2192.11 346.872 2192.64 346.872C2193.18 346.872 2193.61 346.217 2193.61 345.414C2193.61 343.641 2207.5 329.562 2209.24 329.562C2209.93 329.562 2211.11 328.697 2211.88 327.639C2212.63 326.581 2214.03 325.714 2214.97 325.714C2215.9 325.714 2216.69 325.282 2216.69 324.754C2216.69 324.224 2217.55 323.791 2218.6 323.791C2219.66 323.791 2220.53 323.359 2220.53 322.829C2220.53 322.301 2222.27 321.869 2224.38 321.869C2226.5 321.869 2228.22 321.434 2228.22 320.906C2228.22 320.311 2233.35 319.944 2241.68 319.944C2250.01 319.944 2255.13 320.311 2255.13 320.906ZM2616.65 320.906C2616.65 321.434 2617.96 321.869 2619.53 321.869C2621.12 321.869 2622.41 322.301 2622.41 322.829C2622.41 323.359 2623.72 323.791 2625.31 323.791C2626.89 323.791 2628.2 324.224 2628.2 324.754C2628.2 325.282 2628.96 325.714 2629.9 325.714C2630.83 325.714 2632.24 326.581 2632.99 327.639C2633.76 328.697 2634.93 329.562 2635.63 329.562C2637.37 329.562 2651.26 343.641 2651.26 345.414C2651.26 346.217 2651.71 346.872 2652.23 346.872C2652.75 346.872 2653.18 347.737 2653.18 348.795C2653.18 349.853 2653.61 350.72 2654.16 350.72C2654.68 350.72 2655.11 351.585 2655.11 352.642C2655.11 353.7 2655.54 354.565 2656.07 354.565C2656.61 354.565 2657.04 355.865 2657.04 357.45C2657.04 359.038 2657.47 360.335 2657.99 360.335C2658.52 360.335 2658.95 361.635 2658.95 363.22C2658.95 364.808 2659.38 366.106 2659.92 366.106C2660.47 366.106 2660.88 368.991 2660.88 372.838C2660.88 376.686 2661.29 379.571 2661.83 379.571C2662.41 379.571 2662.8 383.416 2662.8 389.186C2662.8 394.957 2662.41 398.804 2661.83 398.804C2661.31 398.804 2660.88 401.369 2660.88 404.574C2660.88 407.779 2660.45 410.344 2659.92 410.344C2659.38 410.344 2658.95 412.076 2658.95 414.192C2658.95 416.307 2658.52 418.037 2657.99 418.037C2657.47 418.037 2657.04 419.337 2657.04 420.922C2657.04 422.51 2656.61 423.807 2656.07 423.807C2655.54 423.807 2655.11 424.674 2655.11 425.732C2655.11 426.79 2654.68 427.655 2654.16 427.655C2653.61 427.655 2653.18 428.426 2653.18 429.366C2653.18 430.308 2652.32 431.701 2651.26 432.463C2650.21 433.227 2649.35 434.412 2649.35 435.097C2649.35 436.847 2637.2 448.813 2635.42 448.813C2634.62 448.813 2633.96 449.245 2633.96 449.775C2633.96 450.303 2633.1 450.736 2632.03 450.736C2630.98 450.736 2630.11 451.168 2630.11 451.698C2630.11 452.226 2629.24 452.66 2628.2 452.66C2627.13 452.66 2626.27 453.093 2626.27 453.621C2626.27 454.151 2625.41 454.583 2624.34 454.583C2623.29 454.583 2622.41 455.016 2622.41 455.545C2622.41 456.073 2621.12 456.506 2619.53 456.506C2617.96 456.506 2616.65 456.938 2616.65 457.468C2616.65 458.065 2611.2 458.43 2602.23 458.43C2593.25 458.43 2587.8 458.065 2587.8 457.468C2587.8 456.938 2586.51 456.506 2584.92 456.506C2583.33 456.506 2582.04 456.073 2582.04 455.545C2582.04 455.016 2580.75 454.583 2579.16 454.583C2577.56 454.583 2576.27 454.151 2576.27 453.621C2576.27 453.093 2575.51 452.66 2574.55 452.66C2573.62 452.66 2572.23 451.793 2571.46 450.736C2570.7 449.678 2569.52 448.813 2568.82 448.813C2567.08 448.813 2553.19 434.734 2553.19 432.961C2553.19 432.158 2552.76 431.502 2552.24 431.502C2551.7 431.502 2551.27 430.637 2551.27 429.578C2551.27 428.52 2550.84 427.655 2550.31 427.655C2549.79 427.655 2549.36 426.79 2549.36 425.732C2549.36 424.674 2548.91 423.807 2548.38 423.807C2547.86 423.807 2547.43 422.942 2547.43 421.885C2547.43 420.827 2547 419.962 2546.46 419.962C2545.93 419.962 2545.5 418.663 2545.5 417.077C2545.5 415.489 2545.07 414.192 2544.55 414.192C2544 414.192 2543.57 412.46 2543.57 410.344C2543.57 408.229 2543.14 406.497 2542.62 406.497C2542.02 406.497 2541.66 400.407 2541.66 390.149C2541.66 379.891 2542.02 373.8 2542.62 373.8C2543.14 373.8 2543.57 371.636 2543.57 368.991C2543.57 366.347 2544 364.183 2544.55 364.183C2545.07 364.183 2545.5 362.885 2545.5 361.298C2545.5 359.71 2545.93 358.413 2546.46 358.413C2547 358.413 2547.43 357.548 2547.43 356.49C2547.43 355.432 2547.86 354.565 2548.38 354.565C2548.91 354.565 2549.36 353.7 2549.36 352.642C2549.36 351.585 2549.79 350.72 2550.31 350.72C2550.84 350.72 2551.27 349.853 2551.27 348.795C2551.27 347.737 2551.68 346.872 2552.16 346.872C2552.67 346.872 2553.34 345.994 2553.68 344.921C2554.49 342.407 2567.12 329.562 2568.8 329.562C2569.5 329.562 2570.7 328.697 2571.46 327.639C2572.23 326.581 2573.62 325.714 2574.55 325.714C2575.51 325.714 2576.27 325.282 2576.27 324.754C2576.27 324.224 2577.13 323.791 2578.2 323.791C2579.25 323.791 2580.11 323.359 2580.11 322.829C2580.11 322.301 2581.85 321.869 2583.97 321.869C2586.08 321.869 2587.8 321.434 2587.8 320.906C2587.8 320.307 2593.25 319.944 2602.23 319.944C2611.2 319.944 2616.65 320.307 2616.65 320.906Z" fill="white"/>
<path fill-rule="evenodd" clip-rule="evenodd" d="M285.098 338.758L546.31 492.392C557.039 498.702 557.06 514.215 546.349 520.554L293.422 670.265C288.287 673.303 281.906 673.303 276.774 670.265L0 506.44L285.098 338.758ZM56.771 506.52L285.098 641.667L513.423 506.52L285.098 372.228L56.771 506.52Z" fill="white"/>
<path fill-rule="evenodd" clip-rule="evenodd" d="M560.513 256.188L556.249 505.691C556.152 511.368 553.116 516.589 548.23 519.482L295.346 669.173C284.45 675.623 270.676 667.767 270.676 655.102V438.006C270.676 429.43 275.245 421.503 282.664 417.202L560.513 256.188ZM299.52 440.779V633.176L527.529 498.21L530.801 306.751L299.52 440.779Z" fill="white"/>
<path fill-rule="evenodd" clip-rule="evenodd" d="M285.065 333.785L23.853 180.151C13.1236 173.84 13.1021 158.328 23.8139 151.988L276.741 2.27895C281.875 -0.759596 288.256 -0.759701 293.389 2.27895L570.163 166.103L285.065 333.785ZM513.392 166.024L285.065 30.876L56.7388 166.024L285.065 300.315L513.392 166.024Z" fill="white"/>
<path fill-rule="evenodd" clip-rule="evenodd" d="M9.65234 416.366L13.9161 166.876C14.0131 161.198 17.0488 155.977 21.9347 153.085L274.819 3.40153C285.715 -3.04758 299.489 4.80779 299.489 17.4716V234.556C299.489 243.133 294.92 251.06 287.501 255.36L9.65234 416.366ZM270.643 231.785V39.397L42.6364 174.356L39.3646 365.806L270.643 231.785Z" fill="white"/>
</g>
<defs>
<clipPath id="clip0">
<rect width="3182" height="674" fill="white"/>
</clipPath>
</defs>
</svg>
