<svg width="2089" height="495" viewBox="0 0 2089 495" fill="none" xmlns="http://www.w3.org/2000/svg">
<path fill-rule="evenodd" clip-rule="evenodd" d="M656.232 0.375H703.632V45.2952H656.232V0.375ZM626.295 67.7552H691.159C701.137 67.7552 703.632 76.0738 703.632 80.233V192.533C703.632 200.519 710.286 202.516 713.612 202.516H726.086V247.436H658.727C648.748 247.436 646.253 240.78 646.253 237.453V122.658C646.253 114.671 639.6 112.675 636.273 112.675H626.295V67.7552ZM64.9696 0.378655H0.105469V45.2988H12.5805C22.559 45.2988 22.559 52.7855 22.559 57.7766V232.466C22.559 237.457 22.559 247.439 32.5375 247.439H177.234C184.719 247.439 189.709 244.943 189.709 237.457V180.059H134.824V200.023H89.9181V25.3343C89.9181 25.3343 89.9182 0.378655 64.9696 0.378655ZM267.047 67.7589H202.183V112.68H212.161C215.488 112.68 222.141 114.676 222.141 122.661V237.457C222.141 240.785 224.636 247.439 234.615 247.439H301.974V202.519H289.501C286.174 202.519 279.521 200.523 279.521 192.537V80.2366C279.521 76.0774 277.026 67.7589 267.047 67.7589ZM232.12 0.378655H279.521V45.2988H232.12V0.378655ZM461.639 122.661H414.239C414.239 95.2106 386.797 92.7148 379.312 107.688C373.304 119.708 376.817 135.139 416.734 142.626C454.154 149.644 469.124 170.077 469.124 195.033C469.124 210.007 454.156 247.439 399.27 247.439C355.362 247.439 331.911 228.306 324.426 219.988L351.87 187.546L352.771 188.203C362.048 194.962 377.612 206.301 394.28 210.007C416.734 214.997 431.702 185.986 379.312 175.068C331.412 165.085 321.933 142.626 321.933 120.166C321.933 110.184 331.911 67.7589 391.785 67.7589C451.661 67.7589 465.798 104.36 461.639 122.661ZM514.03 22.8388H568.914V67.7589H601.346V112.68H568.914V190.042C568.914 200.023 577.231 202.519 581.389 202.519H603.841V247.439H558.936C523.011 247.439 514.03 224.148 514.03 212.501V112.68H486.588V67.7589H514.03V22.8388ZM803.424 67.7589H748.538V112.68H761.013C764.34 112.68 770.992 115.174 770.992 125.157V247.439H820.887V170.077C823.402 137.371 838.672 112.68 870.787 112.68C874.946 112.68 883.262 115.174 883.262 125.157V234.961C883.262 239.121 885.745 247.439 895.737 247.439H960.595V202.519H948.12C944.8 202.519 938.143 200.211 938.143 190.977V100.201C938.143 87.7233 915.691 67.7589 883.262 67.7589C857.312 67.7589 827.541 82.7316 815.897 90.219V80.2366C815.897 76.0774 813.402 67.7589 803.424 67.7589ZM1117.76 67.7589H1185.13V112.68H1175.14C1165.16 112.68 1162.68 120.997 1162.68 125.157V237.457C1162.68 293.296 1107.78 314.819 1065.38 314.819C1037.93 314.819 1012.98 307.333 995.522 299.846L1017.97 259.918C1026.29 263.244 1047.42 269.899 1065.38 269.899C1087.83 269.899 1107.78 259.918 1107.78 227.476C1089.61 238.838 1069.37 237.783 1064.01 237.504C1063.49 237.477 1063.11 237.457 1062.88 237.457C1060.38 237.457 983.047 237.457 983.047 150.112C983.047 122.661 998.021 67.7589 1057.9 67.7589C1092.82 67.7589 1117.76 80.2366 1117.76 80.2366V67.7589ZM1269.94 192.537H1220.06V247.439H1269.94V192.537ZM1309.87 0.378655H1374.72C1384.7 0.378655 1387.2 8.69721 1387.2 12.8566V102.696H1477.01V12.8566C1477.01 0.378657 1489.48 0.378655 1489.48 0.378655H1554.36V45.2988H1544.38C1534.39 45.2988 1531.9 53.6174 1531.9 57.7766V247.439H1477.01V147.616H1387.2V247.439H1329.82V57.7766C1329.82 47.7943 1323.16 45.2988 1319.84 45.2988H1309.87V0.378655ZM1746.45 170.077H1634.19C1634.19 185.05 1646.66 202.519 1674.09 202.519C1698.05 202.519 1717.34 192.537 1724 187.546L1746.45 219.988C1738.97 227.476 1708.09 247.439 1669.11 247.439C1593.27 247.439 1575.97 184.218 1576.81 155.104C1576.81 132.643 1586.78 67.7589 1664.12 67.7589C1741.47 67.7589 1751.44 135.971 1746.45 170.077ZM1766.4 0.378655H1833.77C1843.75 0.378655 1846.25 8.69721 1846.25 12.8566V192.537C1846.25 200.523 1854.55 202.519 1858.71 202.519H1868.7V247.439H1801.33C1791.35 247.439 1788.85 237.457 1788.85 232.466V57.7766C1788.85 47.7943 1782.21 45.2988 1778.88 45.2988H1766.4V0.378655ZM1946.03 67.7589H1878.68V112.68H1891.15C1894.47 112.68 1901.13 115.174 1901.13 125.157V314.819H1958.51V232.466C1968.48 242.449 1993.43 247.439 2005.91 247.439C2083.24 247.439 2088.38 162.589 2088.38 155.104C2088.38 147.616 2080.74 67.7589 2005.91 67.7589C1963.49 67.7589 1946.03 90.219 1946.03 92.7148V67.7589ZM2035.84 155.087C2035.84 145.108 2030.86 112.675 1995.93 112.675C1963.49 112.675 1958.51 147.603 1958.51 155.087C1958.51 160.077 1958.51 202.489 1995.93 202.489C2033.34 202.489 2035.84 165.067 2035.84 155.087ZM1634.19 135.136H1689.07C1688.23 125.984 1681.59 107.684 1661.62 107.684C1641.67 107.684 1635.01 125.984 1634.19 135.136ZM1107.78 150.109C1107.78 135.136 1102.8 112.675 1072.86 112.675C1055.4 112.675 1040.43 127.648 1040.43 150.109C1040.43 177.56 1052.9 192.533 1075.35 192.533C1097.81 192.533 1107.78 172.568 1107.78 150.109Z" fill="white"/>
<path d="M15.6953 343.562H35.6522V462.072H15.6953V343.562Z" fill="white"/>
<path d="M50.6597 376.81H70.6182V462.098H50.6597V376.81ZM60.7189 362.754C57.0998 362.754 54.0671 361.635 51.6178 359.4C49.17 357.058 47.9453 354.183 47.9453 350.776C47.9453 347.368 49.17 344.546 51.6178 342.31C54.0671 339.969 57.0998 338.797 60.7189 338.797C64.3381 338.797 67.3723 339.915 69.8201 342.151C72.2679 344.281 73.4926 346.996 73.4926 350.296C73.4926 353.81 72.2679 356.792 69.8201 359.24C67.4789 361.582 64.4447 362.754 60.7189 362.754Z" fill="white"/>
<path d="M111.995 463.184C105.075 463.184 98.3165 462.279 91.7165 460.469C85.1179 458.658 79.8476 456.37 75.9102 453.601L83.5734 438.429C87.4058 440.984 91.983 443.061 97.3051 444.657C102.734 446.147 108.056 446.893 113.271 446.893C125.193 446.893 131.154 443.752 131.154 437.47C131.154 434.488 129.611 432.413 126.523 431.241C123.544 430.07 118.7 428.951 111.995 427.888C104.968 426.823 99.2213 425.598 94.7507 424.214C90.3867 422.829 86.5543 420.434 83.2551 417.027C80.0609 413.513 78.4646 408.668 78.4646 402.492C78.4646 394.4 81.8172 387.958 88.5238 383.166C95.3356 378.269 104.49 375.82 115.986 375.82C121.841 375.82 127.695 376.512 133.55 377.896C139.403 379.174 144.194 380.931 147.92 383.166L140.255 398.34C133.017 394.08 124.874 391.952 115.826 391.952C109.972 391.952 105.501 392.857 102.414 394.667C99.4345 396.37 97.9433 398.659 97.9433 401.534C97.9433 404.728 99.5396 407.018 102.734 408.401C106.033 409.68 111.09 410.905 117.902 412.075C124.714 413.14 130.302 414.365 134.666 415.748C139.03 417.133 142.756 419.475 145.844 422.776C149.036 426.078 150.634 430.761 150.634 436.832C150.634 444.817 147.173 451.206 140.255 455.997C133.336 460.789 123.915 463.184 111.995 463.184Z" fill="white"/>
<path d="M207.878 457.464C205.536 459.38 202.662 460.817 199.256 461.776C195.955 462.734 192.443 463.212 188.717 463.212C179.351 463.212 172.113 460.764 167.002 455.867C161.894 450.968 159.339 443.834 159.339 434.464V393.417H145.289V377.446H159.339V357.961H179.298V377.446H202.129V393.417H179.298V433.985C179.298 438.137 180.309 441.332 182.33 443.568C184.353 445.698 187.281 446.763 191.113 446.763C195.584 446.763 199.308 445.591 202.289 443.249L207.878 457.464Z" fill="white"/>
<path d="M213.152 376.81H233.11V462.098H213.152V376.81ZM223.211 362.754C219.592 362.754 216.558 361.635 214.11 359.4C211.662 357.058 210.438 354.183 210.438 350.776C210.438 347.368 211.662 344.546 214.11 342.31C216.558 339.969 219.592 338.797 223.211 338.797C226.83 338.797 229.863 339.915 232.312 342.151C234.76 344.281 235.985 346.996 235.985 350.296C235.985 353.81 234.76 356.792 232.312 359.24C229.969 361.582 226.937 362.754 223.211 362.754Z" fill="white"/>
<path d="M296.484 375.82C307.235 375.82 315.856 378.961 322.349 385.243C328.843 391.525 332.089 400.842 332.089 413.193V462.067H312.13V415.748C312.13 408.295 310.374 402.706 306.862 398.979C303.349 395.145 298.347 393.228 291.853 393.228C284.509 393.228 278.708 395.465 274.449 399.937C270.192 404.303 268.062 410.638 268.062 418.944V462.067H248.105V376.779H267.104V387.798C270.405 383.859 274.556 380.877 279.56 378.854C284.562 376.831 290.204 375.82 296.484 375.82Z" fill="white"/>
<path d="M431.675 376.779V449.129C431.675 479.157 416.347 494.169 385.691 494.169C377.495 494.169 369.725 493.104 362.38 490.974C355.035 488.952 348.969 485.97 344.178 482.03L353.119 467.017C356.845 470.106 361.529 472.554 367.171 474.365C372.918 476.281 378.72 477.24 384.573 477.24C393.941 477.24 400.806 475.11 405.17 470.851C409.536 466.592 411.717 460.097 411.717 451.366V446.893C408.311 450.619 404.159 453.441 399.263 455.358C394.366 457.275 388.991 458.233 383.137 458.233C375.047 458.233 367.702 456.53 361.102 453.123C354.61 449.608 349.447 444.711 345.616 438.428C341.89 432.146 340.027 424.959 340.027 416.867C340.027 408.775 341.89 401.641 345.616 395.465C349.447 389.183 354.61 384.338 361.102 380.931C367.702 377.524 375.047 375.82 383.137 375.82C389.31 375.82 394.899 376.831 399.901 378.854C405.012 380.877 409.269 383.966 412.675 388.118V376.779H431.675ZM386.171 441.304C393.728 441.304 399.901 439.067 404.692 434.595C409.587 430.016 412.037 424.107 412.037 416.867C412.037 409.733 409.587 403.929 404.692 399.457C399.901 394.985 393.728 392.75 386.171 392.75C378.506 392.75 372.226 394.985 367.331 399.457C362.54 403.929 360.146 409.733 360.146 416.867C360.146 424.107 362.54 430.016 367.331 434.595C372.226 439.067 378.506 441.304 386.171 441.304Z" fill="white"/>
<path d="M518.002 463.184C509.379 463.184 501.609 461.32 494.691 457.595C487.771 453.868 482.342 448.703 478.405 442.102C474.572 435.393 472.656 427.834 472.656 419.422C472.656 411.01 474.572 403.504 478.405 396.902C482.342 390.3 487.771 385.136 494.691 381.409C501.609 377.684 509.379 375.82 518.002 375.82C526.73 375.82 534.553 377.684 541.472 381.409C548.392 385.136 553.767 390.3 557.599 396.902C561.537 403.504 563.506 411.01 563.506 419.422C563.506 427.834 561.537 435.393 557.599 442.102C553.767 448.703 548.392 453.868 541.472 457.595C534.553 461.32 526.73 463.184 518.002 463.184ZM518.002 446.094C525.345 446.094 531.414 443.646 536.203 438.748C540.993 433.85 543.388 427.408 543.388 419.422C543.388 411.436 540.993 404.994 536.203 400.097C531.414 395.199 525.345 392.75 518.002 392.75C510.657 392.75 504.59 395.199 499.8 400.097C495.116 404.994 492.775 411.436 492.775 419.422C492.775 427.408 495.116 433.85 499.8 438.748C504.59 443.646 510.657 446.094 518.002 446.094Z" fill="white"/>
<path d="M619.75 375.82C630.5 375.82 639.122 378.961 645.615 385.243C652.109 391.525 655.355 400.842 655.355 413.193V462.067H635.398V415.748C635.398 408.295 633.641 402.706 630.127 398.979C626.615 395.145 621.613 393.228 615.119 393.228C607.774 393.228 601.974 395.465 597.717 399.937C593.458 404.303 591.33 410.638 591.33 418.944V462.067H571.371V376.779H590.372V387.798C593.671 383.859 597.822 380.877 602.825 378.854C607.828 376.831 613.469 375.82 619.75 375.82Z" fill="white"/>
<path d="M741.57 463.184C732.735 463.184 724.805 461.32 717.779 457.595C710.754 453.868 705.272 448.703 701.334 442.102C697.395 435.393 695.426 427.834 695.426 419.422C695.426 411.01 697.395 403.504 701.334 396.902C705.272 390.3 710.7 385.136 717.62 381.409C724.645 377.684 732.628 375.82 741.57 375.82C749.979 375.82 757.323 377.524 763.603 380.931C769.99 384.338 774.78 389.236 777.973 395.625L762.645 404.569C760.197 400.629 757.111 397.7 753.385 395.784C749.766 393.762 745.774 392.75 741.41 392.75C733.958 392.75 727.785 395.199 722.889 400.097C717.992 404.888 715.544 411.33 715.544 419.422C715.544 427.514 717.939 434.01 722.729 438.907C727.625 443.699 733.852 446.094 741.41 446.094C745.774 446.094 749.766 445.136 753.385 443.22C757.111 441.197 760.197 438.215 762.645 434.277L777.973 443.22C774.674 449.608 769.83 454.56 763.445 458.073C757.164 461.48 749.873 463.184 741.57 463.184Z" fill="white"/>
<path d="M803.079 389.236C808.827 380.292 818.938 375.82 833.415 375.82V394.825C831.712 394.507 830.169 394.347 828.786 394.347C821.014 394.347 814.947 396.635 810.583 401.214C806.219 405.686 804.037 412.182 804.037 420.7V462.067H784.078V376.779H803.079V389.236Z" fill="white"/>
<path d="M922.086 376.773L882.163 468.929C878.446 478.193 873.922 484.687 868.591 488.414C863.275 492.247 856.835 494.164 849.278 494.164C845.019 494.164 840.815 493.472 836.664 492.087C832.512 490.704 829.106 488.787 826.445 486.339L834.428 471.644C836.345 473.454 838.579 474.891 841.135 475.956C843.796 477.021 846.457 477.553 849.118 477.553C852.631 477.553 855.505 476.648 857.74 474.838C860.082 473.028 862.209 469.994 864.128 465.735L865.56 462.38L828.362 376.773H849.118L875.948 439.86L902.924 376.773H922.086Z" fill="white"/>
<path d="M970.695 375.82C978.996 375.82 986.399 377.63 992.888 381.251C999.483 384.871 1004.65 389.981 1008.38 396.582C1012.1 403.184 1013.97 410.798 1013.97 419.422C1013.97 428.046 1012.1 435.713 1008.38 442.421C1004.65 449.023 999.483 454.133 992.888 457.753C986.399 461.374 978.996 463.184 970.695 463.184C959.195 463.184 950.101 459.352 943.384 451.685V493.051H923.43V376.779H942.439V387.958C945.729 383.913 949.781 380.877 954.564 378.854C959.469 376.831 964.846 375.82 970.695 375.82ZM968.456 446.094C975.797 446.094 981.814 443.646 986.506 438.749C991.288 433.85 993.68 427.408 993.68 419.422C993.68 411.436 991.288 404.994 986.506 400.097C981.814 395.199 975.797 392.75 968.456 392.75C963.673 392.75 959.362 393.868 955.524 396.104C951.685 398.234 948.654 401.321 946.43 405.368C944.191 409.413 943.064 414.098 943.064 419.422C943.064 424.746 944.191 429.431 946.43 433.477C948.654 437.523 951.685 440.664 955.524 442.901C959.362 445.031 963.673 446.094 968.456 446.094Z" fill="white"/>
<path d="M1072.95 457.464C1070.6 459.38 1067.74 460.817 1064.33 461.776C1061.04 462.734 1057.52 463.212 1053.79 463.212C1044.42 463.212 1037.18 460.764 1032.08 455.867C1026.96 450.968 1024.42 443.834 1024.42 434.464V393.417H1010.36V377.446H1024.42V357.961H1044.37V377.446H1067.21V393.417H1044.37V433.985C1044.37 438.137 1045.38 441.332 1047.4 443.568C1049.43 445.698 1052.35 446.763 1056.19 446.763C1060.66 446.763 1064.39 445.591 1067.36 443.249L1072.95 457.464Z" fill="white"/>
<path d="M1113.72 463.184C1105.1 463.184 1097.33 461.32 1090.4 457.595C1083.48 453.868 1078.06 448.703 1074.11 442.102C1070.29 435.393 1068.37 427.834 1068.37 419.422C1068.37 411.01 1070.29 403.504 1074.11 396.902C1078.06 390.3 1083.48 385.136 1090.4 381.409C1097.33 377.684 1105.1 375.82 1113.72 375.82C1122.44 375.82 1130.26 377.684 1137.19 381.409C1144.1 385.136 1149.48 390.3 1153.31 396.902C1157.25 403.504 1159.22 411.01 1159.22 419.422C1159.22 427.834 1157.25 435.393 1153.31 442.102C1149.48 448.703 1144.1 453.868 1137.19 457.595C1130.26 461.32 1122.44 463.184 1113.72 463.184ZM1113.72 446.094C1121.06 446.094 1127.12 443.646 1131.92 438.748C1136.7 433.85 1139.09 427.408 1139.09 419.422C1139.09 411.436 1136.7 404.994 1131.92 400.097C1127.12 395.199 1121.06 392.75 1113.72 392.75C1106.38 392.75 1100.3 395.199 1095.51 400.097C1090.82 404.994 1088.49 411.436 1088.49 419.422C1088.49 427.408 1090.82 433.85 1095.51 438.748C1100.3 443.646 1106.38 446.094 1113.72 446.094Z" fill="white"/>
<path d="M1280.22 419.902C1280.22 421.286 1280.11 423.256 1279.9 425.811H1213C1214.17 432.093 1217.2 437.097 1222.09 440.824C1227.1 444.444 1233.27 446.254 1240.61 446.254C1249.98 446.254 1257.7 443.167 1263.76 436.992L1274.46 449.289C1270.63 453.868 1265.79 457.328 1259.93 459.67C1254.08 462.014 1247.48 463.184 1240.14 463.184C1230.77 463.184 1222.52 461.32 1215.39 457.595C1208.26 453.868 1202.71 448.703 1198.79 442.102C1194.95 435.393 1193.03 427.834 1193.03 419.422C1193.03 411.116 1194.9 403.664 1198.62 397.062C1202.46 390.353 1207.73 385.136 1214.43 381.409C1221.13 377.684 1228.69 375.82 1237.09 375.82C1245.41 375.82 1252.8 377.684 1259.3 381.409C1265.9 385.029 1271 390.195 1274.63 396.902C1278.34 403.504 1280.22 411.17 1280.22 419.902ZM1237.09 391.792C1230.71 391.792 1225.29 393.708 1220.81 397.54C1216.45 401.267 1213.79 406.273 1212.83 412.555H1261.21C1260.35 406.379 1257.75 401.374 1253.39 397.54C1249.02 393.708 1243.6 391.792 1237.09 391.792Z" fill="white"/>
<path d="M1340.18 462.062L1318.31 432.513L1296.27 462.062H1274.24L1307.45 418.778L1275.67 376.773H1297.87L1318.78 404.722L1339.69 376.773H1361.26L1329.32 418.458L1362.69 462.062H1340.18Z" fill="white"/>
<path d="M1402.55 463.184C1393.71 463.184 1385.78 461.32 1378.76 457.595C1371.73 453.868 1366.25 448.703 1362.3 442.102C1358.37 435.393 1356.41 427.834 1356.41 419.422C1356.41 411.01 1358.37 403.504 1362.3 396.902C1366.25 390.3 1371.67 385.136 1378.6 381.409C1385.63 377.684 1393.61 375.82 1402.55 375.82C1410.96 375.82 1418.3 377.524 1424.59 380.931C1430.97 384.338 1435.75 389.236 1438.95 395.625L1423.63 404.569C1421.18 400.629 1418.08 397.7 1414.37 395.784C1410.74 393.762 1406.75 392.75 1402.38 392.75C1394.93 392.75 1388.76 395.199 1383.87 400.097C1378.97 404.888 1376.52 411.33 1376.52 419.422C1376.52 427.514 1378.92 434.01 1383.71 438.907C1388.61 443.699 1394.83 446.094 1402.38 446.094C1406.75 446.094 1410.74 445.136 1414.37 443.22C1418.08 441.197 1421.18 438.215 1423.63 434.277L1438.95 443.22C1435.65 449.608 1430.8 454.56 1424.42 458.073C1418.15 461.48 1410.85 463.184 1402.55 463.184Z" fill="white"/>
<path d="M1492.61 375.825C1503.37 375.825 1511.99 378.965 1518.48 385.247C1524.96 391.53 1528.21 400.847 1528.21 413.198V462.072H1508.25V415.753C1508.25 408.299 1506.5 402.71 1502.98 398.983C1499.47 395.15 1494.47 393.233 1487.98 393.233C1480.64 393.233 1474.84 395.47 1470.57 399.942C1466.32 404.307 1464.19 410.643 1464.19 418.948V462.072H1444.23V343.562H1464.19V386.686C1467.49 383.171 1471.53 380.509 1476.33 378.699C1481.22 376.783 1486.64 375.825 1492.61 375.825Z" fill="white"/>
<path d="M1574.92 375.82C1587.49 375.82 1597.07 378.854 1603.67 384.923C1610.37 390.887 1613.72 399.937 1613.72 412.075V462.067H1594.88V451.685C1592.44 455.411 1588.92 458.287 1584.35 460.31C1579.88 462.225 1574.45 463.184 1568.06 463.184C1561.67 463.184 1556.08 462.12 1551.3 459.99C1546.5 457.753 1542.79 454.72 1540.12 450.886C1537.56 446.946 1536.28 442.527 1536.28 437.63C1536.28 429.963 1539.11 423.841 1544.75 419.262C1550.49 414.577 1559.49 412.235 1571.73 412.235H1593.77V410.956C1593.77 404.994 1591.95 400.416 1588.34 397.222C1584.83 394.027 1579.56 392.43 1572.53 392.43C1567.74 392.43 1563 393.175 1558.32 394.667C1553.74 396.157 1549.85 398.234 1546.67 400.896L1538.84 386.361C1543.32 382.954 1548.68 380.346 1554.97 378.536C1561.25 376.725 1567.9 375.82 1574.92 375.82ZM1572.21 448.651C1577.21 448.651 1581.63 447.533 1585.47 445.296C1589.4 442.954 1592.17 439.654 1593.77 435.393V425.491H1573.17C1561.67 425.491 1555.93 429.271 1555.93 436.832C1555.93 440.452 1557.36 443.326 1560.24 445.456C1563.1 447.586 1567.1 448.651 1572.21 448.651Z" fill="white"/>
<path d="M1676.53 375.82C1687.28 375.82 1695.9 378.961 1702.39 385.243C1708.9 391.525 1712.14 400.842 1712.14 413.193V462.067H1692.17V415.748C1692.17 408.295 1690.42 402.706 1686.92 398.979C1683.4 395.145 1678.39 393.228 1671.9 393.228C1664.56 393.228 1658.75 395.465 1654.5 399.937C1650.24 404.303 1648.11 410.638 1648.11 418.944V462.067H1628.15V376.779H1647.15V387.798C1650.45 383.859 1654.61 380.877 1659.61 378.854C1664.62 376.831 1670.25 375.82 1676.53 375.82Z" fill="white"/>
<path d="M1811.67 376.779V449.129C1811.67 479.157 1796.35 494.169 1765.69 494.169C1757.49 494.169 1749.72 493.104 1742.38 490.974C1735.02 488.952 1728.96 485.97 1724.18 482.03L1733.12 467.017C1736.84 470.106 1741.53 472.554 1747.16 474.365C1752.91 476.281 1758.71 477.24 1764.57 477.24C1773.94 477.24 1780.8 475.11 1785.17 470.851C1789.52 466.592 1791.72 460.097 1791.72 451.366V446.893C1788.3 450.619 1784.15 453.441 1779.26 455.358C1774.37 457.275 1768.99 458.233 1763.13 458.233C1755.04 458.233 1747.7 456.53 1741.1 453.123C1734.6 449.608 1729.45 444.711 1725.61 438.428C1721.88 432.146 1720.02 424.959 1720.02 416.867C1720.02 408.775 1721.88 401.641 1725.61 395.465C1729.45 389.183 1734.6 384.338 1741.1 380.931C1747.7 377.524 1755.04 375.82 1763.13 375.82C1769.31 375.82 1774.89 376.831 1779.9 378.854C1785 380.877 1789.26 383.966 1792.68 388.118V376.779H1811.67ZM1766.16 441.304C1773.73 441.304 1779.9 439.067 1784.68 434.595C1789.58 430.016 1792.04 424.107 1792.04 416.867C1792.04 409.733 1789.58 403.929 1784.68 399.457C1779.9 394.985 1773.73 392.75 1766.16 392.75C1758.5 392.75 1752.22 394.985 1747.33 399.457C1742.53 403.929 1740.14 409.733 1740.14 416.867C1740.14 424.107 1742.53 430.016 1747.33 434.595C1752.22 439.067 1758.5 441.304 1766.16 441.304Z" fill="white"/>
<path d="M1906.92 419.902C1906.92 421.286 1906.81 423.256 1906.6 425.811H1839.7C1840.87 432.093 1843.9 437.097 1848.79 440.824C1853.8 444.444 1859.97 446.254 1867.31 446.254C1876.68 446.254 1884.4 443.167 1890.46 436.992L1901.16 449.289C1897.33 453.868 1892.49 457.328 1886.64 459.67C1880.78 462.014 1874.18 463.184 1866.84 463.184C1857.47 463.184 1849.22 461.32 1842.09 457.595C1834.96 453.868 1829.41 448.703 1825.48 442.102C1821.65 435.393 1819.74 427.834 1819.74 419.422C1819.74 411.116 1821.6 403.664 1825.32 397.062C1829.16 390.353 1834.43 385.136 1841.13 381.409C1847.83 377.684 1855.4 375.82 1863.81 375.82C1872.11 375.82 1879.5 377.684 1886 381.409C1892.6 385.029 1897.7 390.195 1901.32 396.902C1905.06 403.504 1906.92 411.17 1906.92 419.902ZM1863.81 391.792C1857.41 391.792 1851.99 393.708 1847.51 397.54C1843.15 401.267 1840.49 406.273 1839.53 412.555H1887.91C1887.07 406.379 1884.45 401.374 1880.09 397.54C1875.72 393.708 1870.3 391.792 1863.81 391.792Z" fill="white"/>
<path d="M1941.26 463.184C1934.35 463.184 1927.59 462.279 1920.99 460.469C1914.4 458.658 1909.12 456.37 1905.18 453.601L1912.84 438.429C1916.68 440.984 1921.25 443.061 1926.58 444.657C1932 446.147 1937.33 446.893 1942.54 446.893C1954.47 446.893 1960.43 443.752 1960.43 437.47C1960.43 434.488 1958.89 432.413 1955.8 431.241C1952.81 430.07 1947.97 428.951 1941.26 427.888C1934.24 426.823 1928.5 425.598 1924.02 424.214C1919.67 422.829 1915.83 420.434 1912.52 417.027C1909.34 413.513 1907.74 408.668 1907.74 402.492C1907.74 394.4 1911.09 387.958 1917.79 383.166C1924.62 378.269 1933.77 375.82 1945.26 375.82C1951.12 375.82 1956.97 376.512 1962.82 377.896C1968.68 379.174 1973.47 380.931 1977.2 383.166L1969.54 398.34C1962.28 394.08 1954.15 391.952 1945.1 391.952C1939.24 391.952 1934.78 392.857 1931.68 394.667C1928.71 396.37 1927.22 398.659 1927.22 401.534C1927.22 404.728 1928.82 407.018 1932 408.401C1935.31 409.68 1940.37 410.905 1947.17 412.075C1953.98 413.14 1959.57 414.365 1963.94 415.748C1968.3 417.133 1972.03 419.475 1975.11 422.776C1978.31 426.078 1979.91 430.761 1979.91 436.832C1979.91 444.817 1976.45 451.206 1969.54 455.997C1962.6 460.789 1953.19 463.184 1941.26 463.184Z" fill="white"/>
</svg>
