<svg width="2883" height="441" viewBox="0 0 2883 441" fill="none" xmlns="http://www.w3.org/2000/svg">
<g clip-path="url(#clip0)">
<path d="M2731.22 0.177489C2692.93 -0.0029733 2656.12 15.0264 2628.91 41.964C2601.69 68.9015 2586.27 105.544 2586.05 143.842C2586.27 182.14 2601.69 218.782 2628.91 245.72C2656.12 272.657 2692.93 287.686 2731.22 287.507C2811.6 287.507 2876.56 223.053 2876.56 143.842C2876.44 124.864 2872.6 106.094 2865.23 88.6034C2857.87 71.1128 2847.13 55.2442 2833.63 41.9038C2820.13 28.5632 2804.14 18.012 2786.57 10.8526C2769 3.69321 2750.2 0.0657899 2731.22 0.177489ZM2731.22 248.495C2717.41 248.561 2703.73 245.908 2690.94 240.684C2678.15 235.462 2666.54 227.771 2656.72 218.054C2646.92 208.335 2639.12 196.779 2633.76 184.046C2628.41 171.313 2625.63 157.652 2625.57 143.842C2625.75 115.98 2636.98 89.3291 2656.79 69.7396C2676.59 50.15 2703.36 39.2232 2731.22 39.3586C2759.08 39.2232 2785.84 50.15 2805.65 69.7396C2825.46 89.3291 2836.69 115.98 2836.87 143.842C2836.69 171.719 2825.48 198.387 2805.67 218.003C2785.86 237.621 2759.1 248.585 2731.22 248.495ZM1098.42 0.177489C1080.69 0.828064 1063.54 6.71638 1049.14 17.1001C1034.75 27.4838 1023.75 41.8979 1017.53 58.5251V11.5417H897.122V50.8924H978.185V238.827L896.783 238.997V278.008H1117.59V238.827H1017.53V119.587C1017.53 101.777 1033.13 36.984 1087.06 36.984C1103.51 36.984 1118.77 41.394 1128.61 52.7582C1124.71 57.8467 1122.33 64.1224 1122.33 70.907C1122.33 87.8686 1136.41 101.777 1153.71 101.777C1172.36 101.777 1184.23 87.0205 1184.23 68.702C1184.23 39.0193 1150.15 0.177489 1098.42 0.177489ZM2127.65 0.177489C2109.92 0.781654 2092.74 6.62976 2078.3 16.9838C2063.89 27.3379 2052.85 41.734 2046.59 58.3555V11.5417H1926.18V50.8924H2007.25V238.488H1925.84V277.839L2146.99 277.499V238.488H2046.59V119.247C2046.59 101.438 2062.36 36.6447 2116.29 36.6447C2132.74 36.6447 2148 40.8851 2157.67 52.2493C2153.94 57.3378 2151.57 63.6136 2151.57 70.5678C2151.57 87.5293 2165.64 101.438 2182.77 101.438C2201.43 101.438 2213.3 86.5117 2213.3 68.3628C2213.47 38.8497 2179.38 0.177489 2127.65 0.177489ZM1470.16 125.862C1487.29 125.862 1501.36 111.954 1501.36 94.9924V91.0913C1497.29 55.6417 1440.82 0.686335 1369.09 0.686335C1287.85 0.686335 1221.88 65.1401 1221.88 144.69C1221.88 224.41 1287.85 288.864 1369.26 288.864C1395.74 288.957 1421.76 281.919 1444.59 268.489C1467.41 255.061 1486.21 235.733 1498.99 212.537L1467.11 190.995C1457.43 208.595 1443.22 223.285 1425.96 233.543C1408.69 243.803 1389 249.258 1368.92 249.343C1355.13 249.431 1341.45 246.79 1328.69 241.568C1315.93 236.347 1304.32 228.65 1294.55 218.921C1284.77 209.192 1277.02 197.624 1271.74 184.882C1266.46 172.143 1263.75 158.482 1263.77 144.69C1263.75 130.897 1266.46 117.237 1271.74 104.496C1277.02 91.7558 1284.77 80.1874 1294.55 70.4584C1304.32 60.7293 1315.93 53.0321 1328.69 47.8108C1341.45 42.5896 1355.13 39.9475 1368.92 40.037C1401.82 40.037 1429.29 52.2493 1447.77 73.6209C1443.41 77.9313 1440.45 83.4569 1439.26 89.4774C1438.09 95.4979 1438.75 101.734 1441.16 107.373C1443.58 113.012 1447.64 117.792 1452.81 121.09C1457.98 124.388 1464.03 126.051 1470.16 125.862ZM2447.67 50.8924H2480.23L2409.68 232.042L2332.69 50.8924H2366.1V11.5417H2250.1V50.8924H2290.29L2388.99 284.962L2334.72 424.556H2376.78L2522.46 50.8924H2563.67V11.5417H2447.67V50.8924ZM474.677 113.481C474.677 43.599 427.532 0.347104 369.702 0.347104C324.422 0.347104 286.604 32.7436 269.984 65.8186C262.611 46.2879 249.381 29.5143 232.107 17.794C214.833 6.07379 194.358 -0.0199315 173.489 0.347104C154.468 0.996913 135.965 6.71672 119.895 16.915C103.825 27.1134 90.7701 41.4201 82.0807 58.3555V11.3721L0 11.7113V51.062H42.3971V277.669H82.0807V119.078C82.0807 100.929 104.297 36.3055 167.892 36.3055C197.909 36.3055 239.119 63.444 239.119 118.23V277.669H278.633V118.23C278.633 100.081 298.306 36.3055 364.106 36.3055C394.293 36.3055 435.333 60.5605 435.333 115.686V277.839H517.414V238.997H474.847L474.677 113.481ZM706.335 0.00787304C686.142 -0.203308 666.131 3.83611 647.602 11.8637C629.072 19.8913 612.437 31.7276 598.779 46.6039C585.12 61.48 574.745 79.0633 568.322 98.2119C561.902 117.36 559.578 137.646 561.507 157.75C565.536 193.684 582.749 226.844 609.817 250.814C636.885 274.782 671.88 287.858 708.031 287.507C734.514 287.6 760.535 280.563 783.362 267.132C806.189 253.704 824.981 234.376 837.766 211.18L805.883 189.978C796.183 207.545 781.966 222.201 764.702 232.429C747.44 242.659 727.757 248.086 707.692 248.156C682.07 248.392 657.227 239.354 637.747 222.707C618.268 206.061 605.464 182.929 601.699 157.581L845.737 157.75C846.245 152.831 846.415 148.082 846.415 143.163C846.415 63.444 786.72 0.00787304 706.335 0.00787304ZM603.056 118.399C608.79 95.3247 622.102 74.8428 640.859 60.2347C659.615 45.6265 682.732 37.7377 706.505 37.832C756.872 37.832 793.334 72.264 804.527 118.399H603.056ZM1823.41 11.5417H1783.9V169.284C1783.9 205.243 1745.74 253.753 1697.75 253.753C1667.73 253.753 1626.86 225.597 1626.86 174.204V11.5417H1544.95V50.8924H1587.35V176.409C1587.35 246.29 1634.66 287.507 1692.49 287.507C1733.36 287.507 1764.9 262.573 1784.07 236.622V278.008L1866.15 277.839V238.657H1823.75L1823.24 11.5417H1823.41Z" fill="white"/>
</g>
<defs>
<clipPath id="clip0">
<rect width="2883" height="441" fill="white"/>
</clipPath>
</defs>
</svg>
