<svg width="2713" height="848" viewBox="0 0 2713 848" fill="none" xmlns="http://www.w3.org/2000/svg">
<path d="M0 470.162C0 675.452 165.144 841.874 368.858 841.874C572.574 841.874 737.717 675.452 737.717 470.162C737.717 264.871 572.574 98.4492 368.858 98.4492C165.144 98.4492 0 264.871 0 470.162Z" fill="white"/>
<path d="M684.012 100.932C684.012 156.675 728.847 201.863 784.157 201.863C839.465 201.863 884.302 156.675 884.302 100.932C884.302 45.1887 839.465 0 784.157 0C728.847 0 684.012 45.1887 684.012 100.932Z" fill="white"/>
<path d="M908.285 655.174H968.543L1004.86 465.102C1009.92 438.211 1015.44 395.559 1015.44 395.559H1016.36C1016.36 395.559 1016.83 434.964 1018.67 459.535L1034.32 655.174H1096.88L1187.5 459.082C1200.38 431.268 1214.64 395.571 1214.64 395.571H1215.57C1215.57 395.571 1204.99 436.37 1199.46 465.113L1163.14 655.186H1224.33L1287.78 323.706H1193.02L1113.9 495.686C1095.05 536.937 1080.32 581.449 1080.32 581.449H1079.86C1079.86 581.449 1079.4 533.701 1075.72 487.324L1063.3 323.706H971.764L908.285 655.174ZM1379.78 662.146C1460.28 662.146 1510.88 595.388 1510.88 519.362C1510.88 448.896 1462.12 410.88 1401.86 410.88C1321.36 410.88 1268.92 476.244 1268.92 551.346C1268.92 624.09 1318.14 662.129 1379.78 662.129V662.146ZM1330.56 555.035C1330.56 509.136 1351.25 457.682 1398.64 457.682C1434.96 457.682 1449.24 486.424 1449.24 517.486C1449.24 562.915 1429 615.304 1381.16 615.304C1344.82 615.304 1330.56 587.485 1330.56 555.035ZM1624.03 662.129C1704.52 662.129 1755.14 595.37 1755.14 519.345C1755.14 448.879 1706.37 410.863 1646.11 410.863C1565.62 410.858 1513.16 476.227 1513.16 551.33C1513.16 624.09 1562.4 662.129 1624.04 662.129H1624.03ZM1574.81 555.035C1574.81 509.136 1595.51 457.682 1642.89 457.682C1679.21 457.682 1693.5 486.424 1693.5 517.486C1693.5 562.915 1673.25 615.304 1625.41 615.304C1589.08 615.304 1574.81 587.485 1574.81 555.035ZM1852.19 417.335H1791.93L1746.39 655.157H1808.02L1832.88 525.352C1839.31 490.584 1860.01 463.696 1888.99 463.696C1915.2 463.696 1927.17 480.847 1921.19 512.372L1893.58 655.174H1955.24L1983.76 504.981C1994.34 449.349 1967.19 410.858 1920.27 410.858C1886.68 410.858 1866.91 425.692 1846.67 454.898H1845.29L1852.19 417.335ZM1984.22 655.157H2052.29L2075.25 535.102H2155.3C2228.89 535.102 2279.03 492.45 2279.03 421.519C2279.03 359.397 2237.17 323.699 2174.16 323.699H2047.68L1984.22 655.157ZM2104.71 381.638H2165.43C2195.32 381.638 2210.97 397.867 2210.97 424.75C2210.97 464.153 2182.91 480.847 2152.08 480.847H2085.87L2104.71 381.638ZM2397.29 655.174H2455.7V652.85C2452.02 647.289 2450.65 636.163 2453.87 619.936L2475.93 505.9C2488.82 436.822 2444.66 411.328 2386.23 411.328C2325.53 411.328 2288.22 441.001 2280.44 489.678H2335.65C2341.16 466.036 2358.19 455.835 2383.94 455.835C2407.41 455.835 2420.74 465.13 2420.74 482.258C2420.74 505.901 2403.73 507.753 2359.56 511.467C2302.06 516.114 2252.38 527.694 2252.38 590.739C2252.38 639.881 2291 660.74 2327.36 660.74C2361.37 660.74 2378.89 644.513 2393.15 629.213H2394.06C2393.17 638.002 2394.25 646.882 2397.29 655.174ZM2311.73 585.161C2311.73 552.712 2344.38 554.101 2366.92 549.929C2382.4 547.854 2397.54 543.804 2412 537.873L2404.65 575.425C2400.03 597.211 2379.35 617.611 2347.15 617.611C2326.44 617.623 2311.73 606.497 2311.73 585.161ZM2456.16 733.059H2494.78C2540.33 733.059 2560.58 714.512 2584.03 666.764L2705.96 417.354H2643.37L2594.62 525.369C2584.5 547.622 2573 579.147 2573 579.147H2572.07C2572.07 579.147 2568.39 547.157 2565.15 525.369L2549.06 417.354H2484.66L2518.68 586.562C2522.9 604.051 2525.53 621.9 2526.49 639.876C2526.49 669.548 2511.77 683.916 2485.56 683.916H2465.77L2456.16 733.059Z" fill="white"/>
</svg>
