<svg width="40" height="40" viewBox="0 0 40 40" fill="none" xmlns="http://www.w3.org/2000/svg">
  <rect width="40" height="40" rx="20" fill="#fbbf24"/>
  <path d="M20 12c-4.418 0-8 3.582-8 8 0 3.54 2.292 6.532 5.47 7.594.4.074.546-.174.546-.386 0-.19-.007-.693-.01-1.36-2.226.484-2.695-1.073-2.695-1.073-.364-.924-.89-1.17-.89-1.17-.727-.497.055-.487.055-.487.803.057 1.225.825 1.225.825.715 1.225 1.876.872 2.334.667.072-.518.28-.872.508-1.073-1.777-.202-3.644-.888-3.644-3.953 0-.873.312-1.587.824-2.147-.083-.203-.357-1.018.078-2.123 0 0 .67-.215 2.2.82a7.66 7.66 0 0 1 2-.27c.68.003 1.37.092 2 .27 1.53-1.035 2.2-.82 2.2-.82.436 1.105.162 1.92.08 2.123.513.56.824 1.274.824 2.147 0 3.073-1.87 3.748-3.65 3.947.288.247.544.735.544 1.482 0 1.07-.01 1.933-.01 2.197 0 .214.144.463.55.384C25.71 26.53 28 23.54 28 20c0-4.418-3.582-8-8-8z" fill="#111"/>
</svg>