<svg width="40" height="40" viewBox="0 0 40 40" fill="none" xmlns="http://www.w3.org/2000/svg">
  <rect width="40" height="40" rx="20" fill="#fbbf24"/>
  <path d="M30 15.1c-.6.3-1.2.5-1.9.6.7-.4 1.2-1 1.5-1.7-.6.4-1.3.7-2 .9-.6-.6-1.5-1-2.4-1-1.8 0-3.2 1.5-3.2 3.2 0 .3 0 .6.1.8-2.7-.1-5.1-1.4-6.7-3.4-.3.5-.5 1-.5 1.6 0 1.1.6 2.1 1.5 2.7-.5 0-1-.2-1.4-.4v.1c0 1.6 1.1 2.9 2.6 3.2-.3.1-.6.2-.9.2-.2 0-.4 0-.6-.1.4 1.2 1.6 2.1 3 2.1-1.1.9-2.5 1.4-4 1.4-.3 0-.6 0-.9-.1 1.4.9 3.1 1.5 4.9 1.5 5.8 0 9-4.8 9-9v-.4c.6-.4 1.2-1 1.6-1.6z" fill="#111"/>
</svg>